<svg width="1920" height="628" viewBox="0 0 1920 628" fill="none" xmlns="http://www.w3.org/2000/svg">
<g opacity="0.25">
<path d="M615.828 204.578H530.182V545.484H615.828V204.578Z" fill="#E1C2C2"/>
<path d="M601.834 180.139H544.176V323.398H601.834V180.139Z" fill="#E1C2C2"/>
<path d="M588.997 164.635H557.015V244.099H588.997V164.635Z" fill="#E1C2C2"/>
<path d="M583.903 205.468H562.107V151.315H583.903V205.468Z" fill="#E1C2C2"/>
<path d="M571.569 181.885H569.205V127.732H571.569V181.885Z" fill="#E1C2C2"/>
<path d="M576.805 163.166H574.442V109.012H576.805V163.166Z" fill="#E1C2C2"/>
<path d="M618.111 203.704H527.897V207.334H618.111V203.704Z" fill="#E1C2C2"/>
<path d="M603.939 178.392H542.073V181.887H603.939V178.392Z" fill="#E1C2C2"/>
<path d="M590.335 163.166H554.683V165.848H590.335V163.166Z" fill="#E1C2C2"/>
<path d="M552.158 185.952H549.479V200.963H552.158V185.952Z" fill="#E1C2C2"/>
<path d="M559.576 185.952H556.894V200.963H559.576V185.952Z" fill="#E1C2C2"/>
<path d="M566.994 185.952H564.312V200.963H566.994V185.952Z" fill="#E1C2C2"/>
<path d="M574.41 185.952H571.728V200.963H574.41V185.952Z" fill="#E1C2C2"/>
<path d="M581.826 185.952H579.144V200.963H581.826V185.952Z" fill="#E1C2C2"/>
<path d="M589.243 185.952H586.562V200.963H589.243V185.952Z" fill="#E1C2C2"/>
<path d="M596.659 185.952H593.977V200.963H596.659V185.952Z" fill="#E1C2C2"/>
<path d="M544.176 218.171H537.7V235.981H544.176V218.171Z" fill="#E1C2C2"/>
<path d="M557.002 218.171H550.526V235.981H557.002V218.171Z" fill="#E1C2C2"/>
<path d="M569.831 218.171H563.354V235.981H569.831V218.171Z" fill="#E1C2C2"/>
<path d="M582.657 218.171H576.18V235.981H582.657V218.171Z" fill="#E1C2C2"/>
<path d="M595.485 218.171H589.008V235.981H595.485V218.171Z" fill="#E1C2C2"/>
<path d="M608.311 218.171H601.834V235.981H608.311V218.171Z" fill="#E1C2C2"/>
<path d="M544.176 245.931H537.7V263.741H544.176V245.931Z" fill="#E1C2C2"/>
<path d="M557.002 245.931H550.526V263.741H557.002V245.931Z" fill="#E1C2C2"/>
<path d="M569.831 245.931H563.354V263.741H569.831V245.931Z" fill="#E1C2C2"/>
<path d="M582.657 245.931H576.18V263.741H582.657V245.931Z" fill="#E1C2C2"/>
<path d="M595.485 245.931H589.008V263.741H595.485V245.931Z" fill="#E1C2C2"/>
<path d="M608.311 245.931H601.834V263.741H608.311V245.931Z" fill="#E1C2C2"/>
<path d="M544.176 273.692H537.7V291.502H544.176V273.692Z" fill="#E1C2C2"/>
<path d="M557.002 273.692H550.526V291.502H557.002V273.692Z" fill="#E1C2C2"/>
<path d="M569.831 273.692H563.354V291.502H569.831V273.692Z" fill="#E1C2C2"/>
<path d="M582.657 273.692H576.18V291.502H582.657V273.692Z" fill="#E1C2C2"/>
<path d="M595.485 273.692H589.008V291.502H595.485V273.692Z" fill="#E1C2C2"/>
<path d="M608.311 273.692H601.834V291.502H608.311V273.692Z" fill="#E1C2C2"/>
<path d="M544.176 301.451H537.7V319.261H544.176V301.451Z" fill="#E1C2C2"/>
<path d="M557.002 301.451H550.526V319.261H557.002V301.451Z" fill="#E1C2C2"/>
<path d="M569.831 301.451H563.354V319.261H569.831V301.451Z" fill="#E1C2C2"/>
<path d="M582.657 301.451H576.18V319.261H582.657V301.451Z" fill="#E1C2C2"/>
<path d="M595.485 301.451H589.008V319.261H595.485V301.451Z" fill="#E1C2C2"/>
<path d="M608.311 301.451H601.834V319.261H608.311V301.451Z" fill="#E1C2C2"/>
<path d="M544.176 329.213H537.7V347.023H544.176V329.213Z" fill="#E1C2C2"/>
<path d="M557.002 329.213H550.526V347.023H557.002V329.213Z" fill="#E1C2C2"/>
<path d="M569.831 329.213H563.354V347.023H569.831V329.213Z" fill="#E1C2C2"/>
<path d="M582.657 329.213H576.18V347.023H582.657V329.213Z" fill="#E1C2C2"/>
<path d="M595.485 329.213H589.008V347.023H595.485V329.213Z" fill="#E1C2C2"/>
<path d="M608.311 329.213H601.834V347.023H608.311V329.213Z" fill="#E1C2C2"/>
<path d="M544.176 356.974H537.7V374.784H544.176V356.974Z" fill="#E1C2C2"/>
<path d="M557.002 356.974H550.526V374.784H557.002V356.974Z" fill="#E1C2C2"/>
<path d="M569.831 356.974H563.354V374.784H569.831V356.974Z" fill="#E1C2C2"/>
<path d="M582.657 356.974H576.18V374.784H582.657V356.974Z" fill="#E1C2C2"/>
<path d="M595.485 356.974H589.008V374.784H595.485V356.974Z" fill="#E1C2C2"/>
<path d="M608.311 356.974H601.834V374.784H608.311V356.974Z" fill="#E1C2C2"/>
<path d="M544.176 384.733H537.7V402.543H544.176V384.733Z" fill="#E1C2C2"/>
<path d="M557.002 384.733H550.526V402.543H557.002V384.733Z" fill="#E1C2C2"/>
<path d="M569.831 384.733H563.354V402.543H569.831V384.733Z" fill="#E1C2C2"/>
<path d="M582.657 384.733H576.18V402.543H582.657V384.733Z" fill="#E1C2C2"/>
<path d="M595.485 384.733H589.008V402.543H595.485V384.733Z" fill="#E1C2C2"/>
<path d="M608.311 384.733H601.834V402.543H608.311V384.733Z" fill="#E1C2C2"/>
<path d="M544.176 412.495H537.7V430.305H544.176V412.495Z" fill="#E1C2C2"/>
<path d="M557.002 412.495H550.526V430.305H557.002V412.495Z" fill="#E1C2C2"/>
<path d="M569.831 412.495H563.354V430.305H569.831V412.495Z" fill="#E1C2C2"/>
<path d="M582.657 412.495H576.18V430.305H582.657V412.495Z" fill="#E1C2C2"/>
<path d="M595.485 412.495H589.008V430.305H595.485V412.495Z" fill="#E1C2C2"/>
<path d="M608.311 412.495H601.834V430.305H608.311V412.495Z" fill="#E1C2C2"/>
<path d="M544.176 440.254H537.7V458.064H544.176V440.254Z" fill="#E1C2C2"/>
<path d="M557.002 440.254H550.526V458.064H557.002V440.254Z" fill="#E1C2C2"/>
<path d="M569.831 440.254H563.354V458.064H569.831V440.254Z" fill="#E1C2C2"/>
<path d="M582.657 440.254H576.18V458.064H582.657V440.254Z" fill="#E1C2C2"/>
<path d="M595.485 440.254H589.008V458.064H595.485V440.254Z" fill="#E1C2C2"/>
<path d="M608.311 440.254H601.834V458.064H608.311V440.254Z" fill="#E1C2C2"/>
<path d="M544.176 468.016H537.7V485.826H544.176V468.016Z" fill="#E1C2C2"/>
<path d="M557.002 468.016H550.526V485.826H557.002V468.016Z" fill="#E1C2C2"/>
<path d="M569.831 468.016H563.354V485.826H569.831V468.016Z" fill="#E1C2C2"/>
<path d="M582.657 468.016H576.18V485.826H582.657V468.016Z" fill="#E1C2C2"/>
<path d="M595.485 468.016H589.008V485.826H595.485V468.016Z" fill="#E1C2C2"/>
<path d="M608.311 468.016H601.834V485.826H608.311V468.016Z" fill="#E1C2C2"/>
<path d="M544.176 495.775H537.7V513.585H544.176V495.775Z" fill="#E1C2C2"/>
<path d="M557.002 495.775H550.526V513.585H557.002V495.775Z" fill="#E1C2C2"/>
<path d="M569.831 495.775H563.354V513.585H569.831V495.775Z" fill="#E1C2C2"/>
<path d="M582.657 495.775H576.18V513.585H582.657V495.775Z" fill="#E1C2C2"/>
<path d="M595.485 495.775H589.008V513.585H595.485V495.775Z" fill="#E1C2C2"/>
<path d="M608.311 495.775H601.834V513.585H608.311V495.775Z" fill="#E1C2C2"/>
<path d="M419.122 217.546H281.445V504.73H419.122V217.546Z" fill="#E1C2C2"/>
<path d="M423.035 212.606H277.533V220.724H423.035V212.606Z" fill="#E1C2C2"/>
<path d="M414.494 202.218H286.073V240.8H414.494V202.218Z" fill="#E1C2C2"/>
<path d="M346.758 186.431H295.903V228.585H346.758V186.431Z" fill="#E1C2C2"/>
<path d="M325.333 198.311H295.903V176.121H317.01L325.333 198.311Z" fill="#E1C2C2"/>
<path d="M310.618 157.703H307.765V207.13H310.618V157.703Z" fill="#E1C2C2"/>
<path d="M311.752 155.139C311.752 156.554 310.605 157.7 309.189 157.7C307.775 157.7 306.626 156.554 306.626 155.139C306.626 153.725 307.773 152.576 309.189 152.576C310.605 152.579 311.752 153.725 311.752 155.139Z" fill="#E1C2C2"/>
<path d="M1559.23 526.591H1408.52L1389.72 104.353L1559.23 139.541V526.591Z" fill="#E1C2C2"/>
<path d="M901.723 285.456V144.291H878.087V106.479H869.643V51.0199H823.122V10.2629H818.981V51.0199H809.867V0H805.729V51.0199H776.319V144.291H761.127V285.456H748.103V542.576H910.879V285.456H901.723Z" fill="#E1C2C2"/>
<path d="M1889.69 521.357H89.0294V564.183H1889.69V521.357Z" fill="#E1C2C2"/>
<path d="M1148.96 553.689H1069.22L1100.29 394.021H1148.96V553.689Z" fill="#AC5050"/>
<path d="M1915.04 559.909H24.4245V627.437H1915.04V559.909Z" fill="#AC5050"/>
<path d="M1083.61 258.224V187.472H1058.01V160.535H1044.31V137.906H1039.51V99.1185H1038.26V137.906H1033.46V160.535H1019.76V187.472H994.352V258.224H989.071V386.679H949.68V533.112H1088.7V258.224H1083.61Z" fill="#AC5050"/>
<path d="M1230.75 339.499H1106.83V341.752H1112.43V551.295H1225.14V341.752H1230.75V339.499Z" fill="#AC5050"/>
<path d="M665.663 391.693H555.792V566.246H665.663V391.693Z" fill="#AC5050"/>
<path d="M539.243 481.123H350.283V566.244H539.243V481.123Z" fill="#AC5050"/>
<path d="M493.048 290.949H451.566V499.981H493.048V290.949Z" fill="#AC5050"/>
<path d="M462.879 235.189H460.725V348.863H462.879V235.189Z" fill="#AC5050"/>
<path d="M469.883 243.808H467.729V357.483H469.883V243.808Z" fill="#AC5050"/>
<path d="M480.121 278.019H454.765V306.033H480.121V278.019Z" fill="#AC5050"/>
<path d="M604.028 422.94H531.838V566.244H604.028V422.94Z" fill="#AC5050"/>
<path d="M818.986 271.288H683.473V566.244H818.986V271.288Z" fill="#AC5050"/>
<path d="M805.672 261.15H696.787V310.277H805.672V261.15Z" fill="#AC5050"/>
<path d="M829.49 277.459H672.969V280.908H829.49V277.459Z" fill="#AC5050"/>
<path d="M722.774 417.284H658.921V566.246H722.774V417.284Z" fill="#AC5050"/>
<path d="M274.86 411.626H201.591V566.244H274.86V411.626Z" fill="#AC5050"/>
<path d="M371.295 369.605H225.297V566.246H371.295V369.605Z" fill="#AC5050"/>
<path d="M375.066 362.062H216.778V369.605H375.066V362.062Z" fill="#AC5050"/>
<path d="M295.922 341.589H231.761V381.456H295.922V341.589Z" fill="#AC5050"/>
<path d="M327.654 341.589H316.881V365.834H327.654V341.589Z" fill="#AC5050"/>
<path d="M350.283 341.589H338.43V365.834H350.283V341.589Z" fill="#AC5050"/>
<path d="M238.224 506.445H161.724V566.246H238.224V506.445Z" fill="#AC5050"/>
<path d="M169.053 481.123H132.829V566.244H169.053V481.123Z" fill="#AC5050"/>
<path d="M150.942 536.345H89.0294V566.246H150.942V536.345Z" fill="#AC5050"/>
<path d="M1568.55 499.979H805.674V566.243H1568.55V499.979Z" fill="#AC5050"/>
<path d="M1507.64 316.548C1502.83 316.548 1498.9 320.243 1498.51 324.945L1487.77 324.595C1487.8 323.544 1487.81 322.49 1487.81 321.434C1487.81 308.072 1485.51 295.064 1481.09 282.863L1490.06 279.56C1491.47 282.812 1494.7 285.087 1498.47 285.087C1503.53 285.087 1507.64 280.983 1507.64 275.92C1507.64 270.858 1503.53 266.753 1498.47 266.753C1493.41 266.753 1489.3 270.858 1489.3 275.92C1489.3 276.855 1489.44 277.756 1489.7 278.606L1480.74 281.907C1475.63 268.201 1467.84 255.536 1457.63 244.565L1464.65 237.989C1466.29 239.562 1468.52 240.529 1470.98 240.529C1476.04 240.529 1480.15 236.424 1480.15 231.362C1480.15 226.299 1476.04 222.195 1470.98 222.195C1465.92 222.195 1461.81 226.299 1461.81 231.362C1461.81 233.603 1462.62 235.655 1463.95 237.249L1456.93 243.828C1456.21 243.064 1455.48 242.307 1454.73 241.561C1444.1 230.934 1431.73 222.685 1418.26 217.082L1422.12 207.682C1422.99 207.959 1423.93 208.11 1424.89 208.11C1429.96 208.11 1434.06 204.005 1434.06 198.943C1434.06 193.88 1429.96 189.776 1424.89 189.776C1419.83 189.776 1415.73 193.88 1415.73 198.943C1415.73 202.678 1417.96 205.89 1421.17 207.319L1417.32 216.698C1405.26 211.813 1392.35 209.034 1379.03 208.553L1379.45 195.704C1379.55 195.706 1379.64 195.71 1379.74 195.71C1384.8 195.71 1388.91 191.606 1388.91 186.543C1388.91 181.48 1384.8 177.376 1379.74 177.376C1374.68 177.376 1370.57 181.48 1370.57 186.543C1370.57 191.162 1373.99 194.981 1378.43 195.617L1378.01 208.521C1376.96 208.491 1375.91 208.477 1374.85 208.477C1362.03 208.477 1349.53 210.601 1337.76 214.678L1334.07 204.19C1337.4 202.818 1339.75 199.539 1339.75 195.71C1339.75 190.647 1335.64 186.543 1330.58 186.543C1325.52 186.543 1321.41 190.647 1321.41 195.71C1321.41 200.772 1325.52 204.877 1330.58 204.877C1331.46 204.877 1332.3 204.752 1333.1 204.523L1336.8 215.013C1322.53 220.105 1309.35 228.087 1297.98 238.659L1291.28 231.51C1292.78 229.878 1293.7 227.703 1293.7 225.311C1293.7 220.249 1289.59 216.145 1284.53 216.145C1279.47 216.145 1275.36 220.249 1275.36 225.311C1275.36 230.374 1279.46 234.478 1284.53 234.478C1286.84 234.478 1288.94 233.624 1290.55 232.218L1297.24 239.356C1296.48 240.079 1295.72 240.813 1294.97 241.559C1285.52 251.012 1277.95 261.845 1272.45 273.605L1263.93 269.672C1264.24 268.754 1264.41 267.773 1264.41 266.751C1264.41 261.689 1260.3 257.584 1255.24 257.584C1250.18 257.584 1246.07 261.689 1246.07 266.751C1246.07 271.814 1250.18 275.918 1255.24 275.918C1258.92 275.918 1262.1 273.747 1263.55 270.618L1272.02 274.525C1265.94 287.826 1262.5 302.284 1261.96 317.256L1251.03 316.9C1250.89 311.954 1246.85 307.987 1241.87 307.987C1236.81 307.987 1232.7 312.092 1232.7 317.154C1232.7 322.217 1236.81 326.321 1241.87 326.321C1246.67 326.321 1250.61 322.622 1251 317.917L1261.93 318.273C1261.9 319.325 1261.88 320.379 1261.88 321.434C1261.88 334.797 1264.19 347.805 1268.61 360.006L1259.64 363.309C1258.23 360.057 1254.99 357.782 1251.22 357.782C1246.16 357.782 1242.06 361.886 1242.06 366.949C1242.06 372.011 1246.16 376.116 1251.22 376.116C1256.29 376.116 1260.39 372.011 1260.39 366.949C1260.39 366.014 1260.25 365.113 1259.99 364.263L1268.96 360.96C1274.07 374.665 1281.86 387.33 1292.07 398.301L1285.05 404.878C1283.4 403.307 1281.18 402.338 1278.72 402.338C1273.66 402.338 1269.55 406.442 1269.55 411.505C1269.55 416.567 1273.66 420.672 1278.72 420.672C1283.78 420.672 1287.89 416.567 1287.89 411.505C1287.89 409.264 1287.08 407.212 1285.75 405.617L1292.77 399.041C1293.49 399.804 1294.22 400.561 1294.97 401.308C1302.13 408.465 1310.08 414.543 1318.62 419.461L1263.34 521.35H1253.42V524.263H1248.56V530.049H1501.13V524.263H1496.27V521.35H1486.35L1431.07 419.461C1438.43 415.221 1445.36 410.12 1451.71 404.21L1460.67 413.769C1458.75 415.45 1457.53 417.918 1457.53 420.674C1457.53 425.736 1461.63 429.841 1466.7 429.841C1471.76 429.841 1475.87 425.736 1475.87 420.674C1475.87 415.611 1471.76 411.507 1466.7 411.507C1464.75 411.507 1462.96 412.111 1461.48 413.141L1452.45 403.514C1453.22 402.791 1453.97 402.058 1454.72 401.312C1464.17 391.859 1471.74 381.025 1477.25 369.266L1487.22 373.87C1487.04 374.589 1486.94 375.342 1486.94 376.116C1486.94 381.178 1491.05 385.282 1496.11 385.282C1501.17 385.282 1505.28 381.178 1505.28 376.116C1505.28 371.053 1501.17 366.949 1496.11 366.949C1492.18 366.949 1488.83 369.418 1487.53 372.891L1477.68 368.341C1483.75 355.041 1487.19 340.582 1487.74 325.611L1498.48 325.961C1498.61 330.909 1502.66 334.879 1507.64 334.879C1512.7 334.879 1516.8 330.775 1516.8 325.713C1516.8 320.65 1512.7 316.548 1507.64 316.548ZM1484.76 321.436C1484.76 322.458 1484.74 323.48 1484.71 324.498L1453.09 323.47C1453.1 322.793 1453.11 322.115 1453.11 321.436C1453.11 312.115 1451.47 303.171 1448.47 294.873L1478.21 283.921C1482.51 295.789 1484.76 308.439 1484.76 321.436ZM1451.56 323.421L1381 321.127C1380.98 320.667 1380.9 320.22 1380.79 319.791L1447.03 295.401C1449.97 303.533 1451.58 312.299 1451.58 321.436C1451.58 322.1 1451.57 322.761 1451.56 323.421ZM1298.14 319.452L1368.69 321.746C1368.72 322.206 1368.79 322.653 1368.91 323.082L1302.66 347.472C1299.72 339.34 1298.11 330.574 1298.11 321.436C1298.11 320.773 1298.12 320.111 1298.14 319.452ZM1379.68 317.608L1431.16 269.367C1437.84 276.584 1443.15 285.081 1446.68 294.447L1380.43 318.835C1380.23 318.396 1379.98 317.985 1379.68 317.608ZM1378.98 316.864C1378.58 316.503 1378.14 316.194 1377.65 315.948L1404.47 250.65C1414.35 254.801 1423.19 260.964 1430.47 268.621L1378.98 316.864ZM1376.71 315.56C1376.34 315.443 1375.95 315.361 1375.56 315.314L1377.85 244.765C1386.9 245.114 1395.54 247.035 1403.53 250.264L1376.71 315.56ZM1374.54 315.28C1374.11 315.301 1373.69 315.367 1373.29 315.473L1349.82 248.894C1357.67 246.179 1366.09 244.699 1374.85 244.699C1375.51 244.699 1376.17 244.707 1376.83 244.724L1374.54 315.28ZM1372.32 315.812C1371.86 316.022 1371.42 316.291 1371.02 316.607L1322.78 265.125C1330.25 258.21 1339.1 252.759 1348.86 249.236L1372.32 315.812ZM1370.28 317.303C1369.97 317.637 1369.71 318.006 1369.49 318.401L1305.4 288.818C1309.49 280.143 1315.16 272.352 1322.04 265.82L1370.28 317.303ZM1369.06 319.323C1368.89 319.768 1368.78 320.239 1368.73 320.726L1298.18 318.432C1298.57 308.237 1300.96 298.543 1304.97 289.736L1369.06 319.323ZM1369.26 324.036C1369.42 324.39 1369.62 324.727 1369.85 325.04L1369.43 325.814L1318.54 373.504C1311.86 366.287 1306.55 357.79 1303.02 348.424L1369.26 324.036ZM1367.89 328.653L1335.94 387.549C1329.76 383.902 1324.14 379.419 1319.23 374.25L1367.89 328.653ZM1371.36 326.52C1371.58 326.669 1371.81 326.802 1372.04 326.923L1345.23 392.221C1342.64 391.136 1340.13 389.912 1337.7 388.562L1371.36 326.52ZM1372.98 327.313C1373.36 327.43 1373.74 327.512 1374.14 327.559L1371.85 398.108C1362.8 397.759 1354.15 395.838 1346.17 392.609L1372.98 327.313ZM1374.85 398.172C1374.18 398.172 1373.52 398.164 1372.86 398.147L1375.16 327.591C1375.59 327.57 1376.01 327.504 1376.41 327.398L1399.88 393.977C1392.03 396.692 1383.61 398.172 1374.85 398.172ZM1377.37 327.059C1377.71 326.906 1378.03 326.728 1378.33 326.52L1411.99 388.562C1408.43 390.538 1404.71 392.24 1400.83 393.637L1377.37 327.059ZM1383.03 330.917L1426.92 377.75C1422.9 381.464 1418.49 384.755 1413.76 387.551L1383.03 330.917ZM1381.11 327.379L1379.85 325.04C1379.98 324.858 1380.1 324.67 1380.21 324.472L1444.29 354.055C1440.2 362.73 1434.54 370.521 1427.66 377.053L1381.11 327.379ZM1380.64 323.55C1380.8 323.103 1380.91 322.632 1380.97 322.147L1451.52 324.441C1451.13 334.638 1448.74 344.33 1444.72 353.137L1380.64 323.55ZM1344.65 393.635L1332.6 422.965C1328.93 421.437 1325.34 419.707 1321.85 417.782L1336.98 389.906C1339.45 391.282 1342.01 392.531 1344.65 393.635ZM1345.59 394.021C1353.74 397.318 1362.56 399.279 1371.8 399.635L1370.77 431.269C1357.82 430.801 1345.27 428.098 1333.55 423.349L1345.59 394.021ZM1372.81 399.673C1373.49 399.69 1374.17 399.698 1374.85 399.698C1383.79 399.698 1392.38 398.189 1400.38 395.416L1410.92 425.312C1399.47 429.277 1387.32 431.342 1374.85 431.342C1373.83 431.342 1372.81 431.327 1371.79 431.299L1372.81 399.673ZM1401.34 395.079C1405.29 393.654 1409.09 391.918 1412.72 389.906L1427.84 417.782C1422.72 420.61 1417.39 423.016 1411.88 424.979L1401.34 395.079ZM1477.86 282.965L1448.11 293.919C1444.51 284.36 1439.09 275.689 1432.27 268.324L1455.4 246.658C1465.32 257.326 1472.9 269.639 1477.86 282.965ZM1452.56 243.719C1453.29 244.442 1454 245.176 1454.7 245.916L1431.58 267.58C1424.15 259.761 1415.14 253.474 1405.05 249.238L1417.09 219.908C1430.19 225.358 1442.23 233.382 1452.56 243.719ZM1416.15 219.522L1404.1 248.852C1395.95 245.555 1387.13 243.594 1377.9 243.238L1378.93 211.601C1391.88 212.07 1404.43 214.773 1416.15 219.522ZM1374.85 211.527C1375.87 211.527 1376.89 211.542 1377.91 211.57L1376.88 243.198C1376.2 243.181 1375.53 243.172 1374.85 243.172C1365.91 243.172 1357.32 244.682 1349.31 247.455L1338.77 217.559C1350.22 213.592 1362.38 211.527 1374.85 211.527ZM1337.81 217.894L1348.35 247.792C1338.39 251.387 1329.36 256.95 1321.74 264.008L1300.07 240.885C1311.12 230.607 1323.94 222.848 1337.81 217.894ZM1297.13 243.719C1297.85 242.997 1298.59 242.286 1299.33 241.585L1320.99 264.703C1313.97 271.368 1308.19 279.321 1304.01 288.176L1275.22 274.886C1280.57 263.448 1287.94 252.912 1297.13 243.719ZM1274.79 275.81L1303.58 289.1C1299.49 298.087 1297.05 307.979 1296.65 318.386L1265.01 317.358C1265.54 302.802 1268.89 288.742 1274.79 275.81ZM1264.94 321.436C1264.94 320.415 1264.95 319.393 1264.98 318.375L1296.61 319.403C1296.59 320.08 1296.58 320.756 1296.58 321.436C1296.58 330.758 1298.22 339.702 1301.23 348L1271.48 358.952C1267.18 347.084 1264.94 334.432 1264.94 321.436ZM1271.83 359.908L1301.58 348.954C1305.18 358.513 1310.61 367.184 1317.42 374.549L1294.3 396.215C1284.38 385.547 1276.8 373.234 1271.83 359.908ZM1297.13 399.154C1296.41 398.431 1295.7 397.697 1295 396.959L1318.11 375.295C1323.14 380.582 1328.89 385.168 1335.21 388.895L1320.08 416.781C1311.79 412.001 1304.08 406.101 1297.13 399.154ZM1484.04 521.357H1265.66L1320.39 420.47C1323.98 422.448 1327.67 424.225 1331.44 425.796L1327.58 435.196C1326.7 434.918 1325.77 434.767 1324.8 434.767C1319.74 434.767 1315.64 438.872 1315.64 443.934C1315.64 448.997 1319.74 453.101 1324.8 453.101C1329.87 453.101 1333.97 448.997 1333.97 443.934C1333.97 440.199 1331.74 436.987 1328.53 435.558L1332.38 426.179C1344.44 431.064 1357.35 433.843 1370.67 434.324L1370.36 443.939C1365.39 444.051 1361.4 448.109 1361.4 453.101C1361.4 458.164 1365.51 462.268 1370.57 462.268C1375.64 462.268 1379.74 458.164 1379.74 453.101C1379.74 448.31 1376.06 444.38 1371.38 443.97L1371.69 434.356C1372.74 434.386 1373.79 434.401 1374.85 434.401C1387.67 434.401 1400.17 432.276 1411.94 428.2L1415.23 437.547C1412.11 439.01 1409.95 442.177 1409.95 445.851C1409.95 450.913 1414.06 455.018 1419.12 455.018C1424.18 455.018 1428.29 450.913 1428.29 445.851C1428.29 440.788 1424.18 436.684 1419.12 436.684C1418.09 436.684 1417.1 436.856 1416.18 437.169L1412.9 427.865C1418.55 425.846 1424.04 423.377 1429.3 420.472L1484.04 521.357ZM1429.62 416.779L1414.49 388.893C1419.34 386.033 1423.85 382.664 1427.96 378.863L1449.63 401.986C1443.47 407.716 1436.75 412.664 1429.62 416.779ZM1452.56 399.154C1451.84 399.876 1451.11 400.587 1450.37 401.288L1428.7 378.17C1435.72 371.505 1441.5 363.552 1445.68 354.697L1474.47 367.987C1469.12 379.423 1461.76 389.959 1452.56 399.154ZM1474.9 367.063L1446.11 353.773C1450.21 344.786 1452.64 334.892 1453.05 324.487L1484.68 325.515C1484.15 340.071 1480.81 354.131 1474.9 367.063Z" fill="#AC5050"/>
<path d="M1647.57 393.639H1529.76V566.246H1647.57V393.639Z" fill="#AC5050"/>
<path d="M1748.13 460.746H1630.33V565.27H1748.13V460.746Z" fill="#AC5050"/>
<path d="M1239.56 445.397H1173.48V533.112H1239.56V445.397Z" fill="#AC5050"/>
<path d="M1671.99 229.49H1588.67V566.243H1671.99V229.49Z" fill="#AC5050"/>
<path d="M1809.19 566.244H1699.29V369.605H1782.61L1809.19 566.244Z" fill="#AC5050"/>
<path d="M1857.32 521.357H1761.06V566.246H1857.32V521.357Z" fill="#AC5050"/>
<path d="M1653.31 159.138H1650.44V250.65H1653.31V159.138Z" fill="#AC5050"/>
<path d="M1663.01 178.775H1660.14V270.287H1663.01V178.775Z" fill="#AC5050"/>
<path d="M1644.52 191.408H1641.64V282.92H1644.52V191.408Z" fill="#AC5050"/>
<path d="M1742.93 353.711H1703.6V384.689H1742.93V353.711Z" fill="#AC5050"/>
<path d="M1738.62 342.668H1707.91V360.08H1738.62V342.668Z" fill="#AC5050"/>
<path d="M1766.09 362.785H1758.55V375.293H1766.09V362.785Z" fill="#AC5050"/>
<path d="M1779.53 351.373H1768.76V375.293H1779.53V351.373Z" fill="#AC5050"/>
<path d="M1273.04 305.454H1173.14V627.437H1273.04V305.454Z" fill="#602121"/>
<path d="M1280.5 307.362H1165.68V310.624H1280.5V307.362Z" fill="#602121"/>
<path d="M1277.39 352.59H1168.79V355.842H1277.39V352.59Z" fill="#602121"/>
<path d="M1277.39 396.391H1168.79V399.643H1277.39V396.391Z" fill="#602121"/>
<path d="M1277.39 440.193H1168.79V443.445H1277.39V440.193Z" fill="#602121"/>
<path d="M1277.39 483.994H1168.79V487.246H1277.39V483.994Z" fill="#602121"/>
<path d="M1277.39 527.795H1168.79V531.047H1277.39V527.795Z" fill="#602121"/>
<path d="M1277.39 571.596H1168.79V574.849H1277.39V571.596Z" fill="#602121"/>
<path d="M1284.3 298.466H1161.89V307.362H1284.3V298.466Z" fill="#602121"/>
<path d="M1192.51 321.201H1182.14V346.923H1192.51V321.201Z" fill="#602121"/>
<path d="M1215.73 321.201H1205.35V346.923H1215.73V321.201Z" fill="#602121"/>
<path d="M1238.95 321.201H1228.57V346.923H1238.95V321.201Z" fill="#602121"/>
<path d="M1262.16 321.201H1251.78V346.923H1262.16V321.201Z" fill="#602121"/>
<path d="M1192.51 363.256H1182.14V388.978H1192.51V363.256Z" fill="#602121"/>
<path d="M1215.73 363.256H1205.35V388.978H1215.73V363.256Z" fill="#602121"/>
<path d="M1238.95 363.256H1228.57V388.978H1238.95V363.256Z" fill="#602121"/>
<path d="M1262.16 363.256H1251.78V388.978H1262.16V363.256Z" fill="#602121"/>
<path d="M1192.51 407.057H1182.14V432.779H1192.51V407.057Z" fill="#602121"/>
<path d="M1215.73 407.057H1205.35V432.779H1215.73V407.057Z" fill="#602121"/>
<path d="M1238.95 407.057H1228.57V432.779H1238.95V407.057Z" fill="#602121"/>
<path d="M1262.16 407.057H1251.78V432.779H1262.16V407.057Z" fill="#602121"/>
<path d="M1192.51 450.858H1182.14V476.58H1192.51V450.858Z" fill="#602121"/>
<path d="M1215.73 450.858H1205.35V476.58H1215.73V450.858Z" fill="#602121"/>
<path d="M1238.95 450.858H1228.57V476.58H1238.95V450.858Z" fill="#602121"/>
<path d="M1262.16 450.858H1251.78V476.58H1262.16V450.858Z" fill="#602121"/>
<path d="M1192.51 494.66H1182.14V520.382H1192.51V494.66Z" fill="#602121"/>
<path d="M1215.73 494.66H1205.35V520.382H1215.73V494.66Z" fill="#602121"/>
<path d="M1238.95 494.66H1228.57V520.382H1238.95V494.66Z" fill="#602121"/>
<path d="M1262.16 494.66H1251.78V520.382H1262.16V494.66Z" fill="#602121"/>
<path d="M1192.51 538.461H1182.14V564.183H1192.51V538.461Z" fill="#602121"/>
<path d="M1215.73 538.461H1205.35V564.183H1215.73V538.461Z" fill="#602121"/>
<path d="M1238.95 538.461H1228.57V564.183H1238.95V538.461Z" fill="#602121"/>
<path d="M1262.16 538.461H1251.78V564.183H1262.16V538.461Z" fill="#602121"/>
<path d="M1192.51 582.262H1182.14V607.984H1192.51V582.262Z" fill="#602121"/>
<path d="M1215.73 582.262H1205.35V607.984H1215.73V582.262Z" fill="#602121"/>
<path d="M1238.95 582.262H1228.57V607.984H1238.95V582.262Z" fill="#602121"/>
<path d="M1262.16 582.262H1251.78V607.984H1262.16V582.262Z" fill="#602121"/>
<path d="M1213.42 286.191H1179.45V302.914H1213.42V286.191Z" fill="#602121"/>
<path d="M1215.73 285.714H1177.14V288.572H1215.73V285.714Z" fill="#602121"/>
<path d="M1029.97 627.437H896.906V321.509L1029.97 288.96V627.437Z" fill="#602121"/>
<path d="M902.751 316.124H891.059V627.437H902.751V316.124Z" fill="#602121"/>
<path d="M936.018 307.351H924.326V627.437H936.018V307.351Z" fill="#602121"/>
<path d="M969.285 298.239H957.593V627.437H969.285V298.239Z" fill="#602121"/>
<path d="M1002.55 290.815H990.858V627.437H1002.55V290.815Z" fill="#602121"/>
<path d="M1035.82 282.92H1024.13V627.437H1035.82V282.92Z" fill="#602121"/>
<path d="M921.297 342.249H905.779V365.891H921.297V342.249Z" fill="#602121"/>
<path d="M954.564 342.249H939.046V365.891H954.564V342.249Z" fill="#602121"/>
<path d="M987.831 342.249H972.313V365.891H987.831V342.249Z" fill="#602121"/>
<path d="M1021.1 342.249H1005.58V365.891H1021.1V342.249Z" fill="#602121"/>
<path d="M921.297 383.417H905.779V407.059H921.297V383.417Z" fill="#602121"/>
<path d="M954.564 383.417H939.046V407.059H954.564V383.417Z" fill="#602121"/>
<path d="M987.831 383.417H972.313V407.059H987.831V383.417Z" fill="#602121"/>
<path d="M1021.1 383.417H1005.58V407.059H1021.1V383.417Z" fill="#602121"/>
<path d="M921.297 424.585H905.779V448.227H921.297V424.585Z" fill="#602121"/>
<path d="M954.564 424.585H939.046V448.227H954.564V424.585Z" fill="#602121"/>
<path d="M987.831 424.585H972.313V448.227H987.831V424.585Z" fill="#602121"/>
<path d="M1021.1 424.585H1005.58V448.227H1021.1V424.585Z" fill="#602121"/>
<path d="M921.297 465.753H905.779V489.396H921.297V465.753Z" fill="#602121"/>
<path d="M954.564 465.753H939.046V489.396H954.564V465.753Z" fill="#602121"/>
<path d="M987.831 465.753H972.313V489.396H987.831V465.753Z" fill="#602121"/>
<path d="M1021.1 465.753H1005.58V489.396H1021.1V465.753Z" fill="#602121"/>
<path d="M921.297 506.92H905.779V530.562H921.297V506.92Z" fill="#602121"/>
<path d="M954.564 506.92H939.046V530.562H954.564V506.92Z" fill="#602121"/>
<path d="M987.831 506.92H972.313V530.562H987.831V506.92Z" fill="#602121"/>
<path d="M1021.1 506.92H1005.58V530.562H1021.1V506.92Z" fill="#602121"/>
<path d="M921.297 548.088H905.779V571.73H921.297V548.088Z" fill="#602121"/>
<path d="M954.564 548.088H939.046V571.73H954.564V548.088Z" fill="#602121"/>
<path d="M987.831 548.088H972.313V571.73H987.831V548.088Z" fill="#602121"/>
<path d="M1021.1 548.088H1005.58V571.73H1021.1V548.088Z" fill="#602121"/>
<path d="M921.297 589.254H905.779V612.896H921.297V589.254Z" fill="#602121"/>
<path d="M954.564 589.254H939.046V612.896H954.564V589.254Z" fill="#602121"/>
<path d="M987.831 589.254H972.313V612.896H987.831V589.254Z" fill="#602121"/>
<path d="M1021.1 589.254H1005.58V612.896H1021.1V589.254Z" fill="#602121"/>
<path d="M517.316 336.164V339.34H514.153V348.392H569.831V627.437H478.463V339.34H475.147V336.164H517.316Z" fill="#602121"/>
<path d="M751.231 462.915H672.969V627.437H751.231V462.915Z" fill="#602121"/>
<path d="M395.484 425.2H331.867V627.437H395.484V425.2Z" fill="#602121"/>
<path d="M452.209 467.337H382.883V627.437H452.209V467.337Z" fill="#602121"/>
<path d="M382.883 417.082H354.754V441.284H382.883V417.082Z" fill="#602121"/>
<path d="M461.541 464.7H387.64V470.619H461.541V464.7Z" fill="#602121"/>
<path d="M522.489 536.006H444.763V627.437H522.489V536.006Z" fill="#602121"/>
<path d="M256.781 461.636H193.556V627.437H256.781V461.636Z" fill="#602121"/>
<path d="M221.866 544.261H138.69V627.437H221.866V544.261Z" fill="#602121"/>
<path d="M99.1291 530.668H47.1022V627.437H99.1291V530.668Z" fill="#602121"/>
<path d="M211.996 597.126H89.0294V627.437H211.996V597.126Z" fill="#602121"/>
<path d="M63.0234 587.329H0V627.437H63.0234V587.329Z" fill="#602121"/>
<path d="M354.754 566.244H256.781L256.781 627.437H354.754V566.244Z" fill="#602121"/>
<path d="M696.789 601.075H544.176V627.437H696.789V601.075Z" fill="#602121"/>
<path d="M967.367 601.075H814.754V627.437H967.367V601.075Z" fill="#602121"/>
<path d="M690.846 523.684H632.841L608.311 614.257H690.846V523.684Z" fill="#602121"/>
<path d="M719.272 391.899H717.656V492.374H719.272V391.899Z" fill="#602121"/>
<path d="M727.891 425.9H725.738V485.185H727.891V425.9Z" fill="#602121"/>
<path d="M743.537 436.406H714.19V465.753H743.537V436.406Z" fill="#602121"/>
<path d="M748.103 434.125H709.235V436.754H748.103V434.125Z" fill="#602121"/>
<path d="M831.822 542.576H736.997V627.435H831.822V542.576Z" fill="#602121"/>
<path d="M874.61 449.16H813.688V612.898H874.61V449.16Z" fill="#602121"/>
<path d="M1148.95 479.943H1051.62V627.437H1148.95V479.943Z" fill="#602121"/>
<path d="M1132.07 573.089H1021.1V627.437H1132.07V573.089Z" fill="#602121"/>
<path d="M1215.73 607.984H1143.57V627.437H1215.73V607.984Z" fill="#602121"/>
<path d="M1372.04 573.089H1254.72V627.437H1372.04V573.089Z" fill="#602121"/>
<path d="M1301.46 627.438H1447.46V430.797H1301.46V627.438Z" fill="#602121"/>
<path d="M1297.69 430.798H1455.97V423.255H1297.69V430.798Z" fill="#602121"/>
<path d="M1376.83 442.649H1440.99V402.783H1376.83V442.649Z" fill="#602121"/>
<path d="M1345.1 427.026H1355.87V402.782H1345.1V427.026Z" fill="#602121"/>
<path d="M1322.47 427.026H1334.32V402.782H1322.47V427.026Z" fill="#602121"/>
<path d="M1547.82 627.438H1663.39V340.254H1547.82V627.438Z" fill="#602121"/>
<path d="M1544.54 343.432H1666.67V335.315H1544.54V343.432Z" fill="#602121"/>
<path d="M1551.71 363.506H1659.51V324.925H1551.71V363.506Z" fill="#602121"/>
<path d="M1608.57 351.294H1651.25V309.14H1608.57V351.294Z" fill="#602121"/>
<path d="M1626.55 321.021H1651.25V298.829H1633.53L1626.55 321.021Z" fill="#602121"/>
<path d="M1638.9 329.838H1641.3V280.411H1638.9V329.838Z" fill="#602121"/>
<path d="M1637.95 277.849C1637.95 279.263 1638.91 280.41 1640.1 280.41C1641.28 280.41 1642.25 279.263 1642.25 277.849C1642.25 276.433 1641.29 275.286 1640.1 275.286C1638.91 275.286 1637.95 276.433 1637.95 277.849Z" fill="#602121"/>
<path d="M1699.29 508.881H1647.57V627.437H1699.29V508.881Z" fill="#602121"/>
<path d="M1559.23 451.079H1500.25V627.437H1559.23V451.079Z" fill="#602121"/>
<path d="M1529.76 627.437H1446.68V533.112L1516.8 564.183L1529.76 627.437Z" fill="#602121"/>
<path d="M1809.19 576.21H1682.3V627.437H1809.19V576.21Z" fill="#602121"/>
<path d="M1836.03 422.94H1762.32V627.437H1836.03V422.94Z" fill="#602121"/>
<path d="M1940.9 589.254H1818.79V627.435H1940.9V589.254Z" fill="#602121"/>
<path d="M1839.4 419.196H1758.55V425.9H1839.4V419.196Z" fill="#602121"/>
<path d="M1826.15 390.341H1824.53V431.551H1826.15V390.341Z" fill="#602121"/>
<path d="M1815.37 395.558H1813.76V428.617H1815.37V395.558Z" fill="#602121"/>
<path d="M1863.32 499.979H1830.46V593.672H1877.33L1863.32 499.979Z" fill="#602121"/>
<path d="M343.245 435.439H338.43V440.254H343.245V435.439Z" fill="white"/>
<path d="M352.921 435.439H348.106V440.254H352.921V435.439Z" fill="white"/>
<path d="M343.245 446.752H338.43V451.566H343.245V446.752Z" fill="white"/>
<path d="M352.921 446.752H348.106V451.566H352.921V446.752Z" fill="white"/>
<path d="M343.245 457.689H338.43V462.503H343.245V457.689Z" fill="white"/>
<path d="M363.673 435.439H358.859V440.254H363.673V435.439Z" fill="white"/>
<path d="M694.13 290.815H690.846V308.994H694.13V290.815Z" fill="white"/>
<path d="M705.449 290.815H702.165V308.994H705.449V290.815Z" fill="white"/>
<path d="M716.768 290.815H713.484V308.994H716.768V290.815Z" fill="white"/>
<path d="M728.086 290.815H724.803V308.994H728.086V290.815Z" fill="white"/>
<path d="M739.405 290.815H736.121V308.994H739.405V290.815Z" fill="white"/>
<path d="M750.724 290.815H747.44V308.994H750.724V290.815Z" fill="white"/>
<path d="M762.042 290.815H758.759V308.994H762.042V290.815Z" fill="white"/>
<path d="M773.359 290.815H770.075V308.994H773.359V290.815Z" fill="white"/>
<path d="M784.678 290.815H781.394V308.994H784.678V290.815Z" fill="white"/>
<path d="M795.996 290.815H792.713V308.994H795.996V290.815Z" fill="white"/>
<path d="M807.315 290.815H804.031V308.994H807.315V290.815Z" fill="white"/>
<path d="M694.13 316.124H690.846V334.303H694.13V316.124Z" fill="white"/>
<path d="M705.449 316.124H702.165V334.303H705.449V316.124Z" fill="white"/>
<path d="M716.768 316.124H713.484V334.303H716.768V316.124Z" fill="white"/>
<path d="M728.086 316.124H724.803V334.303H728.086V316.124Z" fill="white"/>
<path d="M739.405 316.124H736.121V334.303H739.405V316.124Z" fill="white"/>
<path d="M750.724 316.124H747.44V334.303H750.724V316.124Z" fill="white"/>
<path d="M762.042 316.124H758.759V334.303H762.042V316.124Z" fill="white"/>
<path d="M773.359 316.124H770.075V334.303H773.359V316.124Z" fill="white"/>
<path d="M784.678 316.124H781.394V334.303H784.678V316.124Z" fill="white"/>
<path d="M795.996 316.124H792.713V334.303H795.996V316.124Z" fill="white"/>
<path d="M807.315 316.124H804.031V334.303H807.315V316.124Z" fill="white"/>
<path d="M694.13 341.432H690.846V359.611H694.13V341.432Z" fill="white"/>
<path d="M705.449 341.432H702.165V359.611H705.449V341.432Z" fill="white"/>
<path d="M716.768 341.432H713.484V359.611H716.768V341.432Z" fill="white"/>
<path d="M728.086 341.432H724.803V359.611H728.086V341.432Z" fill="white"/>
<path d="M739.405 341.432H736.121V359.611H739.405V341.432Z" fill="white"/>
<path d="M750.724 341.432H747.44V359.611H750.724V341.432Z" fill="white"/>
<path d="M762.042 341.432H758.759V359.611H762.042V341.432Z" fill="white"/>
<path d="M773.359 341.432H770.075V359.611H773.359V341.432Z" fill="white"/>
<path d="M784.678 341.432H781.394V359.611H784.678V341.432Z" fill="white"/>
<path d="M795.996 341.432H792.713V359.611H795.996V341.432Z" fill="white"/>
<path d="M807.315 341.432H804.031V359.611H807.315V341.432Z" fill="white"/>
<path d="M728.086 366.741H724.803V384.92H728.086V366.741Z" fill="white"/>
<path d="M739.405 366.741H736.121V384.92H739.405V366.741Z" fill="white"/>
<path d="M750.724 366.741H747.44V384.92H750.724V366.741Z" fill="white"/>
<path d="M762.042 366.741H758.759V384.92H762.042V366.741Z" fill="white"/>
<path d="M773.359 366.741H770.075V384.92H773.359V366.741Z" fill="white"/>
<path d="M784.678 366.741H781.394V384.92H784.678V366.741Z" fill="white"/>
<path d="M795.996 366.741H792.713V384.92H795.996V366.741Z" fill="white"/>
<path d="M807.315 366.741H804.031V384.92H807.315V366.741Z" fill="white"/>
<path d="M739.405 393.453H736.121V411.632H739.405V393.453Z" fill="white"/>
<path d="M750.724 393.453H747.44V411.632H750.724V393.453Z" fill="white"/>
<path d="M762.042 393.453H758.759V411.632H762.042V393.453Z" fill="white"/>
<path d="M773.359 393.453H770.075V411.632H773.359V393.453Z" fill="white"/>
<path d="M784.678 393.453H781.394V411.632H784.678V393.453Z" fill="white"/>
<path d="M795.996 393.453H792.713V411.632H795.996V393.453Z" fill="white"/>
<path d="M807.315 393.453H804.031V411.632H807.315V393.453Z" fill="white"/>
<path d="M917.417 335.935H909.658V355.615H917.417V335.935Z" fill="white"/>
<path d="M917.417 373.578H909.658V393.258H917.417V373.578Z" fill="white"/>
<path d="M917.417 411.219H909.658V430.898H917.417V411.219Z" fill="white"/>
<path d="M917.417 448.861H909.658V468.541H917.417V448.861Z" fill="white"/>
<path d="M917.417 484.35H909.658V504.03H917.417V484.35Z" fill="white"/>
<path d="M917.417 521.991H909.658V541.671H917.417V521.991Z" fill="white"/>
<path d="M950.684 335.935H942.925V355.615H950.684V335.935Z" fill="white"/>
<path d="M950.684 373.578H942.925V393.258H950.684V373.578Z" fill="white"/>
<path d="M950.684 411.219H942.925V430.898H950.684V411.219Z" fill="white"/>
<path d="M950.684 448.861H942.925V468.541H950.684V448.861Z" fill="white"/>
<path d="M950.684 484.35H942.925V504.03H950.684V484.35Z" fill="white"/>
<path d="M950.684 521.991H942.925V541.671H950.684V521.991Z" fill="white"/>
<path d="M983.951 335.935H976.192V355.615H983.951V335.935Z" fill="white"/>
<path d="M983.951 373.578H976.192V393.258H983.951V373.578Z" fill="white"/>
<path d="M983.951 411.219H976.192V430.898H983.951V411.219Z" fill="white"/>
<path d="M983.951 448.861H976.192V468.541H983.951V448.861Z" fill="white"/>
<path d="M983.951 484.35H976.192V504.03H983.951V484.35Z" fill="white"/>
<path d="M983.951 521.991H976.192V541.671H983.951V521.991Z" fill="white"/>
<path d="M1017.22 335.935H1009.46V355.615H1017.22V335.935Z" fill="white"/>
<path d="M1017.22 373.578H1009.46V393.258H1017.22V373.578Z" fill="white"/>
<path d="M1017.22 411.219H1009.46V430.898H1017.22V411.219Z" fill="white"/>
<path d="M1017.22 448.861H1009.46V468.541H1017.22V448.861Z" fill="white"/>
<path d="M1017.22 484.35H1009.46V504.03H1017.22V484.35Z" fill="white"/>
<path d="M1017.22 521.991H1009.46V541.671H1017.22V521.991Z" fill="white"/>
<path d="M791.135 61.4991H784.68V78.7219H791.135V61.4991Z" fill="white"/>
<path d="M807.065 61.4991H800.609V78.7219H807.065V61.4991Z" fill="white"/>
<path d="M822.992 61.4991H816.537V78.7219H822.992V61.4991Z" fill="white"/>
<path d="M838.922 61.4991H832.467V78.7219H838.922V61.4991Z" fill="white"/>
<path d="M791.135 90.1827H784.68V107.406H791.135V90.1827Z" fill="white"/>
<path d="M807.065 90.1827H800.609V107.406H807.065V90.1827Z" fill="white"/>
<path d="M822.992 90.1827H816.537V107.406H822.992V90.1827Z" fill="white"/>
<path d="M838.922 90.1827H832.467V107.406H838.922V90.1827Z" fill="white"/>
<path d="M791.135 118.866H784.68V136.089H791.135V118.866Z" fill="white"/>
<path d="M807.065 118.866H800.609V136.089H807.065V118.866Z" fill="white"/>
<path d="M856.993 61.4991H850.538V78.7219H856.993V61.4991Z" fill="white"/>
<path d="M358.859 235.979H354.754V251.767H358.859V235.979Z" fill="white"/>
<path d="M373.347 235.979H369.243V251.767H373.347V235.979Z" fill="white"/>
<path d="M390.292 235.979H386.188V251.767H390.292V235.979Z" fill="white"/>
<path d="M404.778 235.979H400.674V251.767H404.778V235.979Z" fill="white"/>
<path d="M326.675 235.979H322.571V251.767H326.675V235.979Z" fill="white"/>
<path d="M341.161 235.979H337.057V251.767H341.161V235.979Z" fill="white"/>
<path d="M358.859 263.395H354.754V279.183H358.859V263.395Z" fill="white"/>
<path d="M373.347 263.395H369.243V279.183H373.347V263.395Z" fill="white"/>
<path d="M390.292 263.395H386.188V279.183H390.292V263.395Z" fill="white"/>
<path d="M404.778 263.395H400.674V279.183H404.778V263.395Z" fill="white"/>
<path d="M326.675 263.395H322.571V279.183H326.675V263.395Z" fill="white"/>
<path d="M341.161 263.395H337.057V279.183H341.161V263.395Z" fill="white"/>
<path d="M358.859 290.809H354.754V306.596H358.859V290.809Z" fill="white"/>
<path d="M373.347 290.809H369.243V306.596H373.347V290.809Z" fill="white"/>
<path d="M390.292 290.809H386.188V306.596H390.292V290.809Z" fill="white"/>
<path d="M404.778 290.809H400.674V306.596H404.778V290.809Z" fill="white"/>
<path d="M326.675 290.809H322.571V306.596H326.675V290.809Z" fill="white"/>
<path d="M341.161 290.809H337.057V306.596H341.161V290.809Z" fill="white"/>
<path d="M1127.28 356.974H1120.92V381.458H1127.28V356.974Z" fill="white"/>
<path d="M1146.74 356.974H1140.38V381.458H1146.74V356.974Z" fill="white"/>
<path d="M1165.07 356.974H1158.71V381.458H1165.07V356.974Z" fill="white"/>
<path d="M1564.06 362.062H1559.23V375.831H1564.06V362.062Z" fill="white"/>
<path d="M1579.19 362.062H1574.36V375.831H1579.19V362.062Z" fill="white"/>
<path d="M1564.06 362.062H1559.23V375.831H1564.06V362.062Z" fill="white"/>
<path d="M1579.19 362.062H1574.36V375.831H1579.19V362.062Z" fill="white"/>
<path d="M1593.5 362.062H1588.67V375.831H1593.5V362.062Z" fill="white"/>
<path d="M1608.63 362.062H1603.8V375.831H1608.63V362.062Z" fill="white"/>
<path d="M1564.06 386.754H1559.23V400.523H1564.06V386.754Z" fill="white"/>
<path d="M1579.19 386.754H1574.36V400.523H1579.19V386.754Z" fill="white"/>
<path d="M1564.06 386.754H1559.23V400.523H1564.06V386.754Z" fill="white"/>
<path d="M1579.19 386.754H1574.36V400.523H1579.19V386.754Z" fill="white"/>
<path d="M1593.5 386.754H1588.67V400.523H1593.5V386.754Z" fill="white"/>
<path d="M1608.63 386.754H1603.8V400.523H1608.63V386.754Z" fill="white"/>
<path d="M1564.06 413.033H1559.23V426.803H1564.06V413.033Z" fill="white"/>
<path d="M1579.19 413.033H1574.36V426.803H1579.19V413.033Z" fill="white"/>
<path d="M1564.06 413.033H1559.23V426.803H1564.06V413.033Z" fill="white"/>
<path d="M1579.19 413.033H1574.36V426.803H1579.19V413.033Z" fill="white"/>
<path d="M1593.5 413.033H1588.67V426.803H1593.5V413.033Z" fill="white"/>
<path d="M1608.63 413.033H1603.8V426.803H1608.63V413.033Z" fill="white"/>
<path d="M1625.18 362.062H1620.35V375.831H1625.18V362.062Z" fill="white"/>
<path d="M1625.18 386.754H1620.35V400.523H1625.18V386.754Z" fill="white"/>
<path d="M1640.31 362.062H1635.48V375.831H1640.31V362.062Z" fill="white"/>
<path d="M1187.33 321.201H1182.14V342.668H1187.33V321.201Z" fill="white"/>
<path d="M1213.14 321.201H1207.95V342.668H1213.14V321.201Z" fill="white"/>
<path d="M1238.94 321.201H1233.76V342.668H1238.94V321.201Z" fill="white"/>
<path d="M1264.76 321.201H1259.57V342.668H1264.76V321.201Z" fill="white"/>
<path d="M1187.33 365.384H1182.14V386.851H1187.33V365.384Z" fill="white"/>
<path d="M1213.14 365.384H1207.95V386.851H1213.14V365.384Z" fill="white"/>
<path d="M1238.94 365.384H1233.76V386.851H1238.94V365.384Z" fill="white"/>
<path d="M1264.76 365.384H1259.57V386.851H1264.76V365.384Z" fill="white"/>
<path d="M1187.33 410.665H1182.14V432.132H1187.33V410.665Z" fill="white"/>
<path d="M1213.14 410.665H1207.95V432.132H1213.14V410.665Z" fill="white"/>
<path d="M1238.94 410.665H1233.76V432.132H1238.94V410.665Z" fill="white"/>
<path d="M1264.76 410.665H1259.57V432.132H1264.76V410.665Z" fill="white"/>
<path d="M1187.33 455.948H1182.14V477.416H1187.33V455.948Z" fill="white"/>
<path d="M1213.14 455.948H1207.95V477.416H1213.14V455.948Z" fill="white"/>
<path d="M1238.94 455.948H1233.76V477.416H1238.94V455.948Z" fill="white"/>
<path d="M1264.76 455.948H1259.57V477.416H1264.76V455.948Z" fill="white"/>
<path d="M1187.33 497.079H1182.14V518.546H1187.33V497.079Z" fill="white"/>
<path d="M1213.14 497.079H1207.95V518.546H1213.14V497.079Z" fill="white"/>
<path d="M1238.94 497.079H1233.76V518.546H1238.94V497.079Z" fill="white"/>
<path d="M1187.33 542.955H1182.14V564.422H1187.33V542.955Z" fill="white"/>
<path d="M1213.14 542.955H1207.95V564.422H1213.14V542.955Z" fill="white"/>
<path d="M1238.94 542.955H1233.76V564.422H1238.94V542.955Z" fill="white"/>
<path d="M1264.76 497.079H1259.57V518.546H1264.76V497.079Z" fill="white"/>
<path d="M1774.15 434.693H1768.85V447.015H1774.15V434.693Z" fill="white"/>
<path d="M1774.15 454.585H1768.85V466.907H1774.15V454.585Z" fill="white"/>
<path d="M1787.75 434.693H1782.45V447.015H1787.75V434.693Z" fill="white"/>
</g>
</svg>
