<svg width="1920" height="628" viewBox="0 0 1920 628" fill="none" xmlns="http://www.w3.org/2000/svg">
<rect width="1920" height="626" transform="translate(0 1)" fill="url(#paint0_linear_76_42)"/>
<rect x="-2" y="1" width="1931" height="626" fill="#172142"/>
<g opacity="0.25">
<path d="M1325.07 204.578H1410.72V545.484H1325.07V204.578Z" fill="#CCE6E4"/>
<path d="M1339.07 180.139H1396.72V323.398H1339.07V180.139Z" fill="#CCE6E4"/>
<path d="M1351.9 164.635H1383.89V244.099H1351.9V164.635Z" fill="#CCE6E4"/>
<path d="M1357 205.468H1378.79V151.315H1357V205.468Z" fill="#CCE6E4"/>
<path d="M1369.33 181.885H1371.7V127.732H1369.33V181.885Z" fill="#CCE6E4"/>
<path d="M1364.09 163.166H1366.46V109.012H1364.09V163.166Z" fill="#CCE6E4"/>
<path d="M1322.79 203.704H1413V207.334H1322.79V203.704Z" fill="#CCE6E4"/>
<path d="M1336.96 178.392H1398.83V181.887H1336.96V178.392Z" fill="#CCE6E4"/>
<path d="M1350.57 163.166H1386.22V165.848H1350.57V163.166Z" fill="#CCE6E4"/>
<path d="M1388.74 185.952H1391.42V200.963H1388.74V185.952Z" fill="#CCE6E4"/>
<path d="M1381.32 185.952H1384.01V200.963H1381.32V185.952Z" fill="#CCE6E4"/>
<path d="M1373.91 185.952H1376.59V200.963H1373.91V185.952Z" fill="#CCE6E4"/>
<path d="M1366.49 185.952H1369.17V200.963H1366.49V185.952Z" fill="#CCE6E4"/>
<path d="M1359.07 185.952H1361.76V200.963H1359.07V185.952Z" fill="#CCE6E4"/>
<path d="M1351.66 185.952H1354.34V200.963H1351.66V185.952Z" fill="#CCE6E4"/>
<path d="M1344.24 185.952H1346.92V200.963H1344.24V185.952Z" fill="#CCE6E4"/>
<path d="M1396.72 218.171H1403.2V235.981H1396.72V218.171Z" fill="#CCE6E4"/>
<path d="M1383.9 218.171H1390.37V235.981H1383.9V218.171Z" fill="#CCE6E4"/>
<path d="M1371.07 218.171H1377.55V235.981H1371.07V218.171Z" fill="#CCE6E4"/>
<path d="M1358.24 218.171H1364.72V235.981H1358.24V218.171Z" fill="#CCE6E4"/>
<path d="M1345.42 218.171H1351.89V235.981H1345.42V218.171Z" fill="#CCE6E4"/>
<path d="M1332.59 218.171H1339.07V235.981H1332.59V218.171Z" fill="#CCE6E4"/>
<path d="M1396.72 245.931H1403.2V263.741H1396.72V245.931Z" fill="#CCE6E4"/>
<path d="M1383.9 245.931H1390.37V263.741H1383.9V245.931Z" fill="#CCE6E4"/>
<path d="M1371.07 245.931H1377.55V263.741H1371.07V245.931Z" fill="#CCE6E4"/>
<path d="M1358.24 245.931H1364.72V263.741H1358.24V245.931Z" fill="#CCE6E4"/>
<path d="M1345.42 245.931H1351.89V263.741H1345.42V245.931Z" fill="#CCE6E4"/>
<path d="M1332.59 245.931H1339.07V263.741H1332.59V245.931Z" fill="#CCE6E4"/>
<path d="M1396.72 273.692H1403.2V291.502H1396.72V273.692Z" fill="#CCE6E4"/>
<path d="M1383.9 273.692H1390.37V291.502H1383.9V273.692Z" fill="#CCE6E4"/>
<path d="M1371.07 273.692H1377.55V291.502H1371.07V273.692Z" fill="#CCE6E4"/>
<path d="M1358.24 273.692H1364.72V291.502H1358.24V273.692Z" fill="#CCE6E4"/>
<path d="M1345.42 273.692H1351.89V291.502H1345.42V273.692Z" fill="#CCE6E4"/>
<path d="M1332.59 273.692H1339.07V291.502H1332.59V273.692Z" fill="#CCE6E4"/>
<path d="M1396.72 301.451H1403.2V319.261H1396.72V301.451Z" fill="#CCE6E4"/>
<path d="M1383.9 301.451H1390.37V319.261H1383.9V301.451Z" fill="#CCE6E4"/>
<path d="M1371.07 301.451H1377.55V319.261H1371.07V301.451Z" fill="#CCE6E4"/>
<path d="M1358.24 301.451H1364.72V319.261H1358.24V301.451Z" fill="#CCE6E4"/>
<path d="M1345.42 301.451H1351.89V319.261H1345.42V301.451Z" fill="#CCE6E4"/>
<path d="M1332.59 301.451H1339.07V319.261H1332.59V301.451Z" fill="#CCE6E4"/>
<path d="M1396.72 329.213H1403.2V347.023H1396.72V329.213Z" fill="#CCE6E4"/>
<path d="M1383.9 329.213H1390.37V347.023H1383.9V329.213Z" fill="#CCE6E4"/>
<path d="M1371.07 329.213H1377.55V347.023H1371.07V329.213Z" fill="#CCE6E4"/>
<path d="M1358.24 329.213H1364.72V347.023H1358.24V329.213Z" fill="#CCE6E4"/>
<path d="M1345.42 329.213H1351.89V347.023H1345.42V329.213Z" fill="#CCE6E4"/>
<path d="M1332.59 329.213H1339.07V347.023H1332.59V329.213Z" fill="#CCE6E4"/>
<path d="M1396.72 356.974H1403.2V374.784H1396.72V356.974Z" fill="#CCE6E4"/>
<path d="M1383.9 356.974H1390.37V374.784H1383.9V356.974Z" fill="#CCE6E4"/>
<path d="M1371.07 356.974H1377.55V374.784H1371.07V356.974Z" fill="#CCE6E4"/>
<path d="M1358.24 356.974H1364.72V374.784H1358.24V356.974Z" fill="#CCE6E4"/>
<path d="M1345.42 356.974H1351.89V374.784H1345.42V356.974Z" fill="#CCE6E4"/>
<path d="M1332.59 356.974H1339.07V374.784H1332.59V356.974Z" fill="#CCE6E4"/>
<path d="M1396.72 384.733H1403.2V402.543H1396.72V384.733Z" fill="#CCE6E4"/>
<path d="M1383.9 384.733H1390.37V402.543H1383.9V384.733Z" fill="#CCE6E4"/>
<path d="M1371.07 384.733H1377.55V402.543H1371.07V384.733Z" fill="#CCE6E4"/>
<path d="M1358.24 384.733H1364.72V402.543H1358.24V384.733Z" fill="#CCE6E4"/>
<path d="M1345.42 384.733H1351.89V402.543H1345.42V384.733Z" fill="#CCE6E4"/>
<path d="M1332.59 384.733H1339.07V402.543H1332.59V384.733Z" fill="#CCE6E4"/>
<path d="M1396.72 412.495H1403.2V430.305H1396.72V412.495Z" fill="#CCE6E4"/>
<path d="M1383.9 412.495H1390.37V430.305H1383.9V412.495Z" fill="#CCE6E4"/>
<path d="M1371.07 412.495H1377.55V430.305H1371.07V412.495Z" fill="#CCE6E4"/>
<path d="M1358.24 412.495H1364.72V430.305H1358.24V412.495Z" fill="#CCE6E4"/>
<path d="M1345.42 412.495H1351.89V430.305H1345.42V412.495Z" fill="#CCE6E4"/>
<path d="M1332.59 412.495H1339.07V430.305H1332.59V412.495Z" fill="#CCE6E4"/>
<path d="M1396.72 440.254H1403.2V458.064H1396.72V440.254Z" fill="#CCE6E4"/>
<path d="M1383.9 440.254H1390.37V458.064H1383.9V440.254Z" fill="#CCE6E4"/>
<path d="M1371.07 440.254H1377.55V458.064H1371.07V440.254Z" fill="#CCE6E4"/>
<path d="M1358.24 440.254H1364.72V458.064H1358.24V440.254Z" fill="#CCE6E4"/>
<path d="M1345.42 440.254H1351.89V458.064H1345.42V440.254Z" fill="#CCE6E4"/>
<path d="M1332.59 440.254H1339.07V458.064H1332.59V440.254Z" fill="#CCE6E4"/>
<path d="M1396.72 468.016H1403.2V485.826H1396.72V468.016Z" fill="#CCE6E4"/>
<path d="M1383.9 468.016H1390.37V485.826H1383.9V468.016Z" fill="#CCE6E4"/>
<path d="M1371.07 468.016H1377.55V485.826H1371.07V468.016Z" fill="#CCE6E4"/>
<path d="M1358.24 468.016H1364.72V485.826H1358.24V468.016Z" fill="#CCE6E4"/>
<path d="M1345.42 468.016H1351.89V485.826H1345.42V468.016Z" fill="#CCE6E4"/>
<path d="M1332.59 468.016H1339.07V485.826H1332.59V468.016Z" fill="#CCE6E4"/>
<path d="M1396.72 495.775H1403.2V513.585H1396.72V495.775Z" fill="#CCE6E4"/>
<path d="M1383.9 495.775H1390.37V513.585H1383.9V495.775Z" fill="#CCE6E4"/>
<path d="M1371.07 495.775H1377.55V513.585H1371.07V495.775Z" fill="#CCE6E4"/>
<path d="M1358.24 495.775H1364.72V513.585H1358.24V495.775Z" fill="#CCE6E4"/>
<path d="M1345.42 495.775H1351.89V513.585H1345.42V495.775Z" fill="#CCE6E4"/>
<path d="M1332.59 495.775H1339.07V513.585H1332.59V495.775Z" fill="#CCE6E4"/>
<path d="M1521.78 217.546H1659.46V504.73H1521.78V217.546Z" fill="#CCE6E4"/>
<path d="M1517.86 212.606H1663.37V220.724H1517.86V212.606Z" fill="#CCE6E4"/>
<path d="M1526.41 202.218H1654.83V240.8H1526.41V202.218Z" fill="#CCE6E4"/>
<path d="M1594.14 186.431H1645V228.585H1594.14V186.431Z" fill="#CCE6E4"/>
<path d="M1615.57 198.311H1645V176.121H1623.89L1615.57 198.311Z" fill="#CCE6E4"/>
<path d="M1630.28 157.703H1633.14V207.13H1630.28V157.703Z" fill="#CCE6E4"/>
<path d="M1629.15 155.139C1629.15 156.554 1630.29 157.7 1631.71 157.7C1633.13 157.7 1634.27 156.554 1634.27 155.139C1634.27 153.725 1633.13 152.576 1631.71 152.576C1630.29 152.579 1629.15 153.725 1629.15 155.139Z" fill="#CCE6E4"/>
<path d="M381.67 526.591H532.377L551.183 104.353L381.67 139.541V526.591Z" fill="#CCE6E4"/>
<path d="M1039.18 285.456V144.291H1062.81V106.479H1071.26V51.0199H1117.78V10.2629H1121.92V51.0199H1131.03V0H1135.17V51.0199H1164.58V144.291H1179.77V285.456H1192.8V542.576H1030.02V285.456H1039.18Z" fill="#CCE6E4"/>
<path d="M51.2065 521.357H1851.87V564.183H51.2065V521.357Z" fill="#CCE6E4"/>
<path d="M791.945 553.689H871.68L840.612 394.021H791.945V553.689Z" fill="#80AEAA"/>
<path d="M25.8599 559.909H1916.48V627.437H25.8599V559.909Z" fill="#80AEAA"/>
<path d="M857.29 258.224V187.472H882.891V160.535H896.588V137.906H901.394V99.1185H902.636V137.906H907.445V160.535H921.142V187.472H946.548V258.224H951.829V386.679H991.221V533.112H852.204V258.224H857.29Z" fill="#80AEAA"/>
<path d="M710.151 339.499H834.074V341.752H828.466V551.295H715.759V341.752H710.151V339.499Z" fill="#80AEAA"/>
<path d="M1275.24 391.693H1385.11V566.246H1275.24V391.693Z" fill="#80AEAA"/>
<path d="M1401.66 481.123H1590.62V566.244H1401.66V481.123Z" fill="#80AEAA"/>
<path d="M1447.85 290.949H1489.33V499.981H1447.85V290.949Z" fill="#80AEAA"/>
<path d="M1478.02 235.189H1480.18V348.863H1478.02V235.189Z" fill="#80AEAA"/>
<path d="M1471.02 243.808H1473.17V357.483H1471.02V243.808Z" fill="#80AEAA"/>
<path d="M1460.78 278.019H1486.13V306.033H1460.78V278.019Z" fill="#80AEAA"/>
<path d="M1336.87 422.94H1409.06V566.244H1336.87V422.94Z" fill="#80AEAA"/>
<path d="M1121.91 271.288H1257.43V566.244H1121.91V271.288Z" fill="#80AEAA"/>
<path d="M1135.23 261.15H1244.11V310.277H1135.23V261.15Z" fill="#80AEAA"/>
<path d="M1111.41 277.459H1267.93V280.908H1111.41V277.459Z" fill="#80AEAA"/>
<path d="M1218.13 417.284H1281.98V566.246H1218.13V417.284Z" fill="#80AEAA"/>
<path d="M1666.04 411.626H1739.31V566.244H1666.04V411.626Z" fill="#80AEAA"/>
<path d="M1569.61 369.605H1715.6V566.246H1569.61V369.605Z" fill="#80AEAA"/>
<path d="M1565.83 362.062H1724.12V369.605H1565.83V362.062Z" fill="#80AEAA"/>
<path d="M1644.98 341.589H1709.14V381.456H1644.98V341.589Z" fill="#80AEAA"/>
<path d="M1613.25 341.589H1624.02V365.834H1613.25V341.589Z" fill="#80AEAA"/>
<path d="M1590.62 341.589H1602.47V365.834H1590.62V341.589Z" fill="#80AEAA"/>
<path d="M1702.68 506.445H1779.18V566.246H1702.68V506.445Z" fill="#80AEAA"/>
<path d="M1771.85 481.123H1808.07V566.244H1771.85V481.123Z" fill="#80AEAA"/>
<path d="M1789.96 536.345H1851.87V566.246H1789.96V536.345Z" fill="#80AEAA"/>
<path d="M372.346 499.979H1135.23V566.243H372.346V499.979Z" fill="#80AEAA"/>
<path d="M433.262 316.548C438.066 316.548 442.003 320.243 442.395 324.945L453.131 324.595C453.103 323.544 453.086 322.49 453.086 321.434C453.086 308.072 455.393 295.064 459.813 282.863L450.843 279.56C449.434 282.812 446.198 285.087 442.429 285.087C437.367 285.087 433.262 280.983 433.262 275.92C433.262 270.858 437.367 266.753 442.429 266.753C447.492 266.753 451.596 270.858 451.596 275.92C451.596 276.855 451.456 277.756 451.195 278.606L460.163 281.907C465.272 268.201 473.063 255.536 483.271 244.565L476.252 237.989C474.606 239.562 472.378 240.529 469.921 240.529C464.859 240.529 460.754 236.424 460.754 231.362C460.754 226.299 464.859 222.195 469.921 222.195C474.984 222.195 479.088 226.299 479.088 231.362C479.088 233.603 478.282 235.655 476.947 237.249L483.966 243.828C484.689 243.064 485.423 242.307 486.171 241.561C496.799 230.934 509.171 222.685 522.641 217.082L518.781 207.682C517.905 207.959 516.973 208.11 516.006 208.11C510.943 208.11 506.839 204.005 506.839 198.943C506.839 193.88 510.943 189.776 516.006 189.776C521.068 189.776 525.173 193.88 525.173 198.943C525.173 202.678 522.938 205.89 519.733 207.319L523.585 216.698C535.637 211.813 548.552 209.034 561.87 208.553L561.452 195.704C561.355 195.706 561.259 195.71 561.162 195.71C556.099 195.71 551.995 191.606 551.995 186.543C551.995 181.48 556.099 177.376 561.162 177.376C566.224 177.376 570.329 181.48 570.329 186.543C570.329 191.162 566.911 194.981 562.468 195.617L562.888 208.521C563.939 208.491 564.993 208.477 566.048 208.477C578.872 208.477 591.368 210.601 603.138 214.678L606.835 204.19C603.5 202.818 601.154 199.539 601.154 195.71C601.154 190.647 605.258 186.543 610.32 186.543C615.383 186.543 619.489 190.647 619.489 195.71C619.489 200.772 615.385 204.877 610.32 204.877C609.445 204.877 608.599 204.752 607.797 204.523L604.1 215.013C618.374 220.105 631.554 228.087 642.92 238.659L649.619 231.51C648.12 229.878 647.204 227.703 647.204 225.311C647.204 220.249 651.308 216.145 656.371 216.145C661.433 216.145 665.54 220.249 665.54 225.311C665.54 230.374 661.436 234.478 656.371 234.478C654.064 234.478 651.959 233.624 650.348 232.218L643.66 239.356C644.423 240.079 645.179 240.813 645.926 241.559C655.379 251.012 662.947 261.845 668.449 273.605L676.969 269.672C676.661 268.754 676.492 267.773 676.492 266.751C676.492 261.689 680.596 257.584 685.659 257.584C690.721 257.584 694.826 261.689 694.826 266.751C694.826 271.814 690.721 275.918 685.659 275.918C681.979 275.918 678.805 273.747 677.346 270.618L668.883 274.525C674.959 287.826 678.402 302.284 678.943 317.256L689.871 316.9C690.007 311.954 694.054 307.987 699.032 307.987C704.094 307.987 708.199 312.092 708.199 317.154C708.199 322.217 704.094 326.321 699.032 326.321C694.226 326.321 690.287 322.622 689.899 317.917L678.974 318.273C679.004 319.325 679.019 320.379 679.019 321.434C679.019 334.797 676.712 347.805 672.292 360.006L681.262 363.309C682.672 360.057 685.907 357.782 689.676 357.782C694.739 357.782 698.843 361.886 698.843 366.949C698.843 372.011 694.739 376.116 689.676 376.116C684.614 376.116 680.507 372.011 680.507 366.949C680.507 366.014 680.647 365.113 680.908 364.263L671.94 360.96C666.831 374.665 659.04 387.33 648.832 398.301L655.852 404.878C657.497 403.307 659.725 402.338 662.182 402.338C667.244 402.338 671.349 406.442 671.349 411.505C671.349 416.567 667.244 420.672 662.182 420.672C657.119 420.672 653.013 416.567 653.013 411.505C653.013 409.264 653.819 407.212 655.154 405.617L648.135 399.041C647.412 399.804 646.678 400.561 645.932 401.308C638.775 408.465 630.825 414.543 622.281 419.461L677.56 521.35H687.482V524.263H692.341V530.049H439.771V524.263H444.63V521.35H454.551L509.83 419.461C502.465 415.221 495.543 410.12 489.188 404.21L480.231 413.769C482.154 415.45 483.371 417.918 483.371 420.674C483.371 425.736 479.266 429.841 474.204 429.841C469.141 429.841 465.035 425.736 465.035 420.674C465.035 415.611 469.139 411.507 474.204 411.507C476.146 411.507 477.943 412.111 479.425 413.141L488.446 403.514C487.683 402.791 486.926 402.058 486.179 401.312C476.726 391.859 469.158 381.025 463.655 369.266L453.678 373.87C453.858 374.589 453.956 375.342 453.956 376.116C453.956 381.178 449.851 385.282 444.789 385.282C439.726 385.282 435.622 381.178 435.622 376.116C435.622 371.053 439.726 366.949 444.789 366.949C448.717 366.949 452.067 369.418 453.37 372.891L463.224 368.341C457.148 355.041 453.705 340.582 453.165 325.611L442.425 325.961C442.293 330.909 438.244 334.879 433.264 334.879C428.202 334.879 424.095 330.775 424.095 325.713C424.095 320.65 428.2 316.548 433.262 316.548ZM456.143 321.436C456.143 322.458 456.158 323.48 456.186 324.498L487.814 323.47C487.797 322.793 487.789 322.115 487.789 321.436C487.789 312.115 489.429 303.171 492.433 294.873L462.686 283.921C458.386 295.789 456.143 308.439 456.143 321.436ZM489.343 323.421L559.898 321.127C559.922 320.667 559.996 320.22 560.115 319.791L493.869 295.401C490.926 303.533 489.319 312.299 489.319 321.436C489.317 322.1 489.326 322.761 489.343 323.421ZM642.763 319.452L572.207 321.746C572.184 322.206 572.109 322.653 571.991 323.082L638.237 347.472C641.179 339.34 642.786 330.574 642.786 321.436C642.788 320.773 642.78 320.111 642.763 319.452ZM561.223 317.608L509.741 269.367C503.063 276.584 497.753 285.081 494.223 294.447L560.466 318.835C560.67 318.396 560.924 317.985 561.223 317.608ZM561.919 316.864C562.317 316.503 562.765 316.194 563.248 315.948L536.432 250.65C526.549 254.801 517.71 260.964 510.434 268.621L561.919 316.864ZM564.189 315.56C564.56 315.443 564.946 315.361 565.342 315.314L563.049 244.765C554.005 245.114 545.357 247.035 537.373 250.264L564.189 315.56ZM566.362 315.28C566.793 315.301 567.212 315.367 567.615 315.473L591.081 248.894C583.233 246.179 574.812 244.699 566.053 244.699C565.389 244.699 564.728 244.707 564.068 244.724L566.362 315.28ZM568.575 315.812C569.044 316.022 569.483 316.291 569.881 316.607L618.122 265.125C610.649 258.21 601.802 252.759 592.042 249.236L568.575 315.812ZM570.623 317.303C570.927 317.637 571.192 318.006 571.414 318.401L635.498 288.818C631.406 280.143 625.741 272.352 618.864 265.82L570.623 317.303ZM571.844 319.323C572.008 319.768 572.118 320.239 572.175 320.726L642.725 318.432C642.33 308.237 639.941 298.543 635.93 289.736L571.844 319.323ZM571.641 324.036C571.476 324.39 571.278 324.727 571.049 325.04L571.469 325.814L622.364 373.504C629.042 366.287 634.353 357.79 637.883 348.424L571.641 324.036ZM573.01 328.653L604.963 387.549C611.137 383.902 616.761 379.419 621.671 374.25L573.01 328.653ZM569.536 326.52C569.32 326.669 569.093 326.802 568.857 326.923L595.673 392.221C598.255 391.136 600.766 389.912 603.197 388.562L569.536 326.52ZM567.916 327.313C567.545 327.43 567.159 327.512 566.761 327.559L569.055 398.108C578.099 397.759 586.746 395.838 594.73 392.609L567.916 327.313ZM566.053 398.172C566.716 398.172 567.378 398.164 568.037 398.147L565.743 327.591C565.313 327.57 564.893 327.504 564.49 327.398L541.024 393.977C548.872 396.692 557.293 398.172 566.053 398.172ZM563.53 327.059C563.193 326.906 562.87 326.728 562.569 326.52L528.91 388.562C532.466 390.538 536.192 392.24 540.066 393.637L563.53 327.059ZM557.867 330.917L513.983 377.75C517.996 381.464 522.406 384.755 527.14 387.551L557.867 330.917ZM559.786 327.379L561.054 325.04C560.922 324.858 560.799 324.67 560.689 324.472L496.606 354.055C500.697 362.73 506.364 370.521 513.239 377.053L559.786 327.379ZM560.261 323.55C560.098 323.103 559.987 322.632 559.93 322.147L489.381 324.441C489.775 334.638 492.164 344.33 496.175 353.137L560.261 323.55ZM596.252 393.635L608.298 422.965C611.97 421.437 615.557 419.707 619.048 417.782L603.924 389.906C601.446 391.282 598.887 392.531 596.252 393.635ZM595.311 394.021C587.161 397.318 578.336 399.279 569.103 399.635L570.132 431.269C583.081 430.801 595.635 428.098 607.354 423.349L595.311 394.021ZM568.086 399.673C567.409 399.69 566.733 399.698 566.053 399.698C557.115 399.698 548.525 398.189 540.517 395.416L529.979 425.312C541.427 429.277 553.581 431.342 566.051 431.342C567.074 431.342 568.094 431.327 569.112 431.299L568.086 399.673ZM539.557 395.079C535.609 393.654 531.808 391.918 528.181 389.906L513.057 417.782C518.181 420.61 523.515 423.016 529.018 424.979L539.557 395.079ZM463.036 282.965L492.788 293.919C496.39 284.36 501.81 275.689 508.626 268.324L485.503 246.658C475.58 257.326 468.005 269.639 463.036 282.965ZM488.336 243.719C487.613 244.442 486.902 245.176 486.201 245.916L509.319 267.58C516.746 259.761 525.764 253.474 535.851 249.238L523.807 219.908C510.706 225.358 498.673 233.382 488.336 243.719ZM524.751 219.522L536.797 248.852C544.946 245.555 553.771 243.594 563.002 243.238L561.974 211.601C549.025 212.07 536.47 214.773 524.751 219.522ZM566.053 211.527C565.031 211.527 564.009 211.542 562.991 211.57L564.02 243.198C564.696 243.181 565.372 243.172 566.053 243.172C574.99 243.172 583.581 244.682 591.588 247.455L602.127 217.559C590.679 213.592 578.525 211.527 566.053 211.527ZM603.087 217.894L592.548 247.792C602.51 251.387 611.539 256.95 619.165 264.008L640.831 240.885C629.782 230.607 616.964 222.848 603.087 217.894ZM643.77 243.719C643.047 242.997 642.313 242.286 641.573 241.585L619.909 264.703C626.926 271.368 632.712 279.321 636.886 288.176L665.678 274.886C660.327 263.448 652.964 252.912 643.77 243.719ZM666.106 275.81L637.316 289.1C641.41 298.087 643.848 307.979 644.251 318.386L675.886 317.358C675.36 302.802 672.012 288.742 666.106 275.81ZM675.962 321.436C675.962 320.415 675.947 319.393 675.92 318.375L644.291 319.403C644.308 320.08 644.317 320.756 644.317 321.436C644.317 330.758 642.676 339.702 639.672 348L669.42 358.952C673.719 347.084 675.962 334.432 675.962 321.436ZM669.07 359.908L639.318 348.954C635.716 358.513 630.295 367.184 623.479 374.549L646.602 396.215C656.524 385.547 664.101 373.234 669.07 359.908ZM643.77 399.154C644.493 398.431 645.203 397.697 645.905 396.959L622.786 375.295C617.764 380.582 612.01 385.168 605.692 388.895L620.821 416.781C629.11 412.001 636.823 406.101 643.77 399.154ZM456.864 521.357H675.241L620.507 420.47C616.92 422.448 613.233 424.225 609.46 425.796L613.32 435.196C614.196 434.918 615.129 434.767 616.097 434.767C621.16 434.767 625.264 438.872 625.264 443.934C625.264 448.997 621.16 453.101 616.097 453.101C611.035 453.101 606.928 448.997 606.928 443.934C606.928 440.199 609.163 436.987 612.368 435.558L608.516 426.179C596.464 431.064 583.549 433.843 570.231 434.324L570.543 443.939C575.508 444.051 579.498 448.109 579.498 453.101C579.498 458.164 575.393 462.268 570.329 462.268C565.264 462.268 561.162 458.164 561.162 453.101C561.162 448.31 564.838 444.38 569.523 443.97L569.211 434.356C568.16 434.386 567.106 434.401 566.051 434.401C553.227 434.401 540.731 432.276 528.961 428.2L525.667 437.547C528.785 439.01 530.948 442.177 530.948 445.851C530.948 450.913 526.843 455.018 521.781 455.018C516.718 455.018 512.614 450.913 512.614 445.851C512.614 440.788 516.718 436.684 521.781 436.684C522.809 436.684 523.799 436.856 524.721 437.169L528.001 427.865C522.347 425.846 516.864 423.377 511.598 420.472L456.864 521.357ZM511.282 416.779L526.411 388.893C521.562 386.033 517.047 382.664 512.938 378.863L491.272 401.986C497.435 407.716 504.147 412.664 511.282 416.779ZM488.336 399.154C489.058 399.876 489.792 400.587 490.532 401.288L512.196 378.17C505.179 371.505 499.396 363.552 495.221 354.697L466.43 367.987C471.778 379.423 479.141 389.959 488.336 399.154ZM465.999 367.063L494.789 353.773C490.695 344.786 488.257 334.892 487.854 324.487L456.22 325.515C456.745 340.071 460.093 354.131 465.999 367.063Z" fill="#80AEAA"/>
<path d="M293.332 393.639H411.136V566.246H293.332V393.639Z" fill="#80AEAA"/>
<path d="M192.767 460.746H310.571V565.27H192.767V460.746Z" fill="#80AEAA"/>
<path d="M701.338 445.397H767.423V533.112H701.338V445.397Z" fill="#80AEAA"/>
<path d="M268.909 229.49H352.234V566.243H268.909V229.49Z" fill="#80AEAA"/>
<path d="M131.709 566.244H241.612V369.605H158.288L131.709 566.244Z" fill="#80AEAA"/>
<path d="M83.583 521.357H179.837V566.246H83.583V521.357Z" fill="#80AEAA"/>
<path d="M287.586 159.138H290.459V250.65H287.586V159.138Z" fill="#80AEAA"/>
<path d="M277.887 178.775H280.76V270.287H277.887V178.775Z" fill="#80AEAA"/>
<path d="M296.384 191.408H299.257V282.92H296.384V191.408Z" fill="#80AEAA"/>
<path d="M197.974 353.711H237.302V384.689H197.974V353.711Z" fill="#80AEAA"/>
<path d="M202.284 342.668H232.992V360.08H202.284V342.668Z" fill="#80AEAA"/>
<path d="M174.809 362.785H182.352V375.293H174.809V362.785Z" fill="#80AEAA"/>
<path d="M161.366 351.373H172.14V375.293H161.366V351.373Z" fill="#80AEAA"/>
<path d="M667.864 305.454H767.756V627.437H667.864V305.454Z" fill="#3F7571"/>
<path d="M660.399 307.362H775.218V310.624H660.399V307.362Z" fill="#3F7571"/>
<path d="M663.507 352.59H772.112V355.842H663.507V352.59Z" fill="#3F7571"/>
<path d="M663.507 396.391H772.112V399.643H663.507V396.391Z" fill="#3F7571"/>
<path d="M663.507 440.193H772.112V443.445H663.507V440.193Z" fill="#3F7571"/>
<path d="M663.507 483.994H772.112V487.246H663.507V483.994Z" fill="#3F7571"/>
<path d="M663.507 527.795H772.112V531.047H663.507V527.795Z" fill="#3F7571"/>
<path d="M663.507 571.596H772.112V574.849H663.507V571.596Z" fill="#3F7571"/>
<path d="M656.602 298.466H779.015V307.362H656.602V298.466Z" fill="#3F7571"/>
<path d="M748.385 321.201H758.765V346.923H748.385V321.201Z" fill="#3F7571"/>
<path d="M725.169 321.201H735.549V346.923H725.169V321.201Z" fill="#3F7571"/>
<path d="M701.953 321.201H712.333V346.923H701.953V321.201Z" fill="#3F7571"/>
<path d="M678.739 321.201H689.119V346.923H678.739V321.201Z" fill="#3F7571"/>
<path d="M748.385 363.256H758.765V388.978H748.385V363.256Z" fill="#3F7571"/>
<path d="M725.169 363.256H735.549V388.978H725.169V363.256Z" fill="#3F7571"/>
<path d="M701.953 363.256H712.333V388.978H701.953V363.256Z" fill="#3F7571"/>
<path d="M678.739 363.256H689.119V388.978H678.739V363.256Z" fill="#3F7571"/>
<path d="M748.385 407.057H758.765V432.779H748.385V407.057Z" fill="#3F7571"/>
<path d="M725.169 407.057H735.549V432.779H725.169V407.057Z" fill="#3F7571"/>
<path d="M701.953 407.057H712.333V432.779H701.953V407.057Z" fill="#3F7571"/>
<path d="M678.739 407.057H689.119V432.779H678.739V407.057Z" fill="#3F7571"/>
<path d="M748.385 450.858H758.765V476.58H748.385V450.858Z" fill="#3F7571"/>
<path d="M725.169 450.858H735.549V476.58H725.169V450.858Z" fill="#3F7571"/>
<path d="M701.953 450.858H712.333V476.58H701.953V450.858Z" fill="#3F7571"/>
<path d="M678.739 450.858H689.119V476.58H678.739V450.858Z" fill="#3F7571"/>
<path d="M748.385 494.66H758.765V520.382H748.385V494.66Z" fill="#3F7571"/>
<path d="M725.169 494.66H735.549V520.382H725.169V494.66Z" fill="#3F7571"/>
<path d="M701.953 494.66H712.333V520.382H701.953V494.66Z" fill="#3F7571"/>
<path d="M678.739 494.66H689.119V520.382H678.739V494.66Z" fill="#3F7571"/>
<path d="M748.385 538.461H758.765V564.183H748.385V538.461Z" fill="#3F7571"/>
<path d="M725.169 538.461H735.549V564.183H725.169V538.461Z" fill="#3F7571"/>
<path d="M701.953 538.461H712.333V564.183H701.953V538.461Z" fill="#3F7571"/>
<path d="M678.739 538.461H689.119V564.183H678.739V538.461Z" fill="#3F7571"/>
<path d="M748.385 582.262H758.765V607.984H748.385V582.262Z" fill="#3F7571"/>
<path d="M725.169 582.262H735.549V607.984H725.169V582.262Z" fill="#3F7571"/>
<path d="M701.953 582.262H712.333V607.984H701.953V582.262Z" fill="#3F7571"/>
<path d="M678.739 582.262H689.119V607.984H678.739V582.262Z" fill="#3F7571"/>
<path d="M727.476 286.191H761.451V302.914H727.476V286.191Z" fill="#3F7571"/>
<path d="M725.171 285.714H763.755V288.572H725.171V285.714Z" fill="#3F7571"/>
<path d="M910.928 627.437H1043.99V321.509L910.928 288.96V627.437Z" fill="#3F7571"/>
<path d="M1038.15 316.124H1049.84V627.437H1038.15V316.124Z" fill="#3F7571"/>
<path d="M1004.88 307.351H1016.57V627.437H1004.88V307.351Z" fill="#3F7571"/>
<path d="M971.615 298.239H983.307V627.437H971.615V298.239Z" fill="#3F7571"/>
<path d="M938.35 290.815H950.042V627.437H938.35V290.815Z" fill="#3F7571"/>
<path d="M905.083 282.92H916.775V627.437H905.083V282.92Z" fill="#3F7571"/>
<path d="M1019.6 342.249H1035.12V365.891H1019.6V342.249Z" fill="#3F7571"/>
<path d="M986.336 342.249H1001.85V365.891H986.336V342.249Z" fill="#3F7571"/>
<path d="M953.069 342.249H968.588V365.891H953.069V342.249Z" fill="#3F7571"/>
<path d="M919.802 342.249H935.321V365.891H919.802V342.249Z" fill="#3F7571"/>
<path d="M1019.6 383.417H1035.12V407.059H1019.6V383.417Z" fill="#3F7571"/>
<path d="M986.336 383.417H1001.85V407.059H986.336V383.417Z" fill="#3F7571"/>
<path d="M953.069 383.417H968.588V407.059H953.069V383.417Z" fill="#3F7571"/>
<path d="M919.802 383.417H935.321V407.059H919.802V383.417Z" fill="#3F7571"/>
<path d="M1019.6 424.585H1035.12V448.227H1019.6V424.585Z" fill="#3F7571"/>
<path d="M986.336 424.585H1001.85V448.227H986.336V424.585Z" fill="#3F7571"/>
<path d="M953.069 424.585H968.588V448.227H953.069V424.585Z" fill="#3F7571"/>
<path d="M919.802 424.585H935.321V448.227H919.802V424.585Z" fill="#3F7571"/>
<path d="M1019.6 465.753H1035.12V489.396H1019.6V465.753Z" fill="#3F7571"/>
<path d="M986.336 465.753H1001.85V489.396H986.336V465.753Z" fill="#3F7571"/>
<path d="M953.069 465.753H968.588V489.396H953.069V465.753Z" fill="#3F7571"/>
<path d="M919.802 465.753H935.321V489.396H919.802V465.753Z" fill="#3F7571"/>
<path d="M1019.6 506.92H1035.12V530.562H1019.6V506.92Z" fill="#3F7571"/>
<path d="M986.336 506.92H1001.85V530.562H986.336V506.92Z" fill="#3F7571"/>
<path d="M953.069 506.92H968.588V530.562H953.069V506.92Z" fill="#3F7571"/>
<path d="M919.802 506.92H935.321V530.562H919.802V506.92Z" fill="#3F7571"/>
<path d="M1019.6 548.088H1035.12V571.73H1019.6V548.088Z" fill="#3F7571"/>
<path d="M986.336 548.088H1001.85V571.73H986.336V548.088Z" fill="#3F7571"/>
<path d="M953.069 548.088H968.588V571.73H953.069V548.088Z" fill="#3F7571"/>
<path d="M919.802 548.088H935.321V571.73H919.802V548.088Z" fill="#3F7571"/>
<path d="M1019.6 589.254H1035.12V612.896H1019.6V589.254Z" fill="#3F7571"/>
<path d="M986.336 589.254H1001.85V612.896H986.336V589.254Z" fill="#3F7571"/>
<path d="M953.069 589.254H968.588V612.896H953.069V589.254Z" fill="#3F7571"/>
<path d="M919.802 589.254H935.321V612.896H919.802V589.254Z" fill="#3F7571"/>
<path d="M1423.58 336.164V339.34H1426.75V348.392H1371.07V627.437H1462.44V339.34H1465.75V336.164H1423.58Z" fill="#3F7571"/>
<path d="M1189.67 462.915H1267.93V627.437H1189.67V462.915Z" fill="#3F7571"/>
<path d="M1545.42 425.2H1609.03V627.437H1545.42V425.2Z" fill="#3F7571"/>
<path d="M1488.69 467.337H1558.02V627.437H1488.69V467.337Z" fill="#3F7571"/>
<path d="M1558.02 417.082H1586.15V441.284H1558.02V417.082Z" fill="#3F7571"/>
<path d="M1479.36 464.7H1553.26V470.619H1479.36V464.7Z" fill="#3F7571"/>
<path d="M1418.41 536.006H1496.14V627.437H1418.41V536.006Z" fill="#3F7571"/>
<path d="M1684.12 461.636H1747.34V627.437H1684.12V461.636Z" fill="#3F7571"/>
<path d="M1719.03 544.261H1802.21V627.437H1719.03V544.261Z" fill="#3F7571"/>
<path d="M1841.77 530.668H1893.8V627.437H1841.77V530.668Z" fill="#3F7571"/>
<path d="M1728.9 597.126H1851.87V627.437H1728.9V597.126Z" fill="#3F7571"/>
<path d="M1877.88 587.329H1940.9V627.437H1877.88V587.329Z" fill="#3F7571"/>
<path d="M1586.15 566.244H1684.12L1684.12 627.437H1586.15V566.244Z" fill="#3F7571"/>
<path d="M1244.11 601.075H1396.72V627.437H1244.11V601.075Z" fill="#3F7571"/>
<path d="M973.534 601.075H1126.15V627.437H973.534V601.075Z" fill="#3F7571"/>
<path d="M1250.05 523.684H1308.06L1332.59 614.257H1250.05V523.684Z" fill="#3F7571"/>
<path d="M1221.63 391.899H1223.24V492.374H1221.63V391.899Z" fill="#3F7571"/>
<path d="M1213.01 425.9H1215.16V485.185H1213.01V425.9Z" fill="#3F7571"/>
<path d="M1197.36 436.406H1226.71V465.753H1197.36V436.406Z" fill="#3F7571"/>
<path d="M1192.8 434.125H1231.66V436.754H1192.8V434.125Z" fill="#3F7571"/>
<path d="M1109.08 542.576H1203.9V627.435H1109.08V542.576Z" fill="#3F7571"/>
<path d="M1066.29 449.16H1127.21V612.898H1066.29V449.16Z" fill="#3F7571"/>
<path d="M791.947 479.943H889.281V627.437H791.947V479.943Z" fill="#3F7571"/>
<path d="M808.829 573.089H919.802V627.437H808.829V573.089Z" fill="#3F7571"/>
<path d="M725.169 607.984H797.334V627.437H725.169V607.984Z" fill="#3F7571"/>
<path d="M568.855 573.089H686.185V627.437H568.855V573.089Z" fill="#3F7571"/>
<path d="M639.441 627.438H493.443V430.797H639.441V627.438Z" fill="#3F7571"/>
<path d="M643.213 430.798H484.925V423.255H643.213V430.798Z" fill="#3F7571"/>
<path d="M564.07 442.649H499.908V402.783H564.07V442.649Z" fill="#3F7571"/>
<path d="M595.803 427.026H585.029V402.782H595.803V427.026Z" fill="#3F7571"/>
<path d="M618.432 427.026H606.579V402.782H618.432V427.026Z" fill="#3F7571"/>
<path d="M393.079 627.438H277.511V340.254H393.079V627.438Z" fill="#3F7571"/>
<path d="M396.363 343.432H274.227V335.315H396.363V343.432Z" fill="#3F7571"/>
<path d="M389.193 363.506H281.395V324.925H389.193V363.506Z" fill="#3F7571"/>
<path d="M332.333 351.294H289.647V309.14H332.333V351.294Z" fill="#3F7571"/>
<path d="M314.349 321.021H289.647V298.829H307.366L314.349 321.021Z" fill="#3F7571"/>
<path d="M302 329.838H299.604V280.411H302V329.838Z" fill="#3F7571"/>
<path d="M302.952 277.849C302.952 279.263 301.99 280.41 300.803 280.41C299.615 280.41 298.651 279.263 298.651 277.849C298.651 276.433 299.613 275.286 300.803 275.286C301.992 275.286 302.952 276.433 302.952 277.849Z" fill="#3F7571"/>
<path d="M241.612 508.881H293.332V627.437H241.612V508.881Z" fill="#3F7571"/>
<path d="M381.67 451.079H440.653V627.437H381.67V451.079Z" fill="#3F7571"/>
<path d="M411.136 627.437H494.221V533.112L424.095 564.183L411.136 627.437Z" fill="#3F7571"/>
<path d="M131.709 576.21H258.595V627.437H131.709V576.21Z" fill="#3F7571"/>
<path d="M104.874 422.94H178.58V627.437H104.874V422.94Z" fill="#3F7571"/>
<path d="M0 589.254H122.114V627.435H0V589.254Z" fill="#3F7571"/>
<path d="M101.499 419.196H182.352V425.9H101.499V419.196Z" fill="#3F7571"/>
<path d="M114.754 390.341H116.369V431.551H114.754V390.341Z" fill="#3F7571"/>
<path d="M125.527 395.558H127.143V428.617H125.527V395.558Z" fill="#3F7571"/>
<path d="M77.5793 499.979H110.441V593.672H63.5703L77.5793 499.979Z" fill="#3F7571"/>
<path d="M1597.66 435.439H1602.47V440.254H1597.66V435.439Z" fill="white"/>
<path d="M1587.98 435.439H1592.79V440.254H1587.98V435.439Z" fill="white"/>
<path d="M1597.66 446.752H1602.47V451.566H1597.66V446.752Z" fill="white"/>
<path d="M1587.98 446.752H1592.79V451.566H1587.98V446.752Z" fill="white"/>
<path d="M1597.66 457.689H1602.47V462.503H1597.66V457.689Z" fill="white"/>
<path d="M1577.23 435.439H1582.04V440.254H1577.23V435.439Z" fill="white"/>
<path d="M1246.77 290.815H1250.05V308.994H1246.77V290.815Z" fill="white"/>
<path d="M1235.45 290.815H1238.74V308.994H1235.45V290.815Z" fill="white"/>
<path d="M1224.13 290.815H1227.42V308.994H1224.13V290.815Z" fill="white"/>
<path d="M1212.81 290.815H1216.1V308.994H1212.81V290.815Z" fill="white"/>
<path d="M1201.5 290.815H1204.78V308.994H1201.5V290.815Z" fill="white"/>
<path d="M1190.18 290.815H1193.46V308.994H1190.18V290.815Z" fill="white"/>
<path d="M1178.86 290.815H1182.14V308.994H1178.86V290.815Z" fill="white"/>
<path d="M1167.54 290.815H1170.83V308.994H1167.54V290.815Z" fill="white"/>
<path d="M1156.22 290.815H1159.51V308.994H1156.22V290.815Z" fill="white"/>
<path d="M1144.9 290.815H1148.19V308.994H1144.9V290.815Z" fill="white"/>
<path d="M1133.59 290.815H1136.87V308.994H1133.59V290.815Z" fill="white"/>
<path d="M1246.77 316.124H1250.05V334.303H1246.77V316.124Z" fill="white"/>
<path d="M1235.45 316.124H1238.74V334.303H1235.45V316.124Z" fill="white"/>
<path d="M1224.13 316.124H1227.42V334.303H1224.13V316.124Z" fill="white"/>
<path d="M1212.81 316.124H1216.1V334.303H1212.81V316.124Z" fill="white"/>
<path d="M1201.5 316.124H1204.78V334.303H1201.5V316.124Z" fill="white"/>
<path d="M1190.18 316.124H1193.46V334.303H1190.18V316.124Z" fill="white"/>
<path d="M1178.86 316.124H1182.14V334.303H1178.86V316.124Z" fill="white"/>
<path d="M1167.54 316.124H1170.83V334.303H1167.54V316.124Z" fill="white"/>
<path d="M1156.22 316.124H1159.51V334.303H1156.22V316.124Z" fill="white"/>
<path d="M1144.9 316.124H1148.19V334.303H1144.9V316.124Z" fill="white"/>
<path d="M1133.59 316.124H1136.87V334.303H1133.59V316.124Z" fill="white"/>
<path d="M1246.77 341.432H1250.05V359.611H1246.77V341.432Z" fill="white"/>
<path d="M1235.45 341.432H1238.74V359.611H1235.45V341.432Z" fill="white"/>
<path d="M1224.13 341.432H1227.42V359.611H1224.13V341.432Z" fill="white"/>
<path d="M1212.81 341.432H1216.1V359.611H1212.81V341.432Z" fill="white"/>
<path d="M1201.5 341.432H1204.78V359.611H1201.5V341.432Z" fill="white"/>
<path d="M1190.18 341.432H1193.46V359.611H1190.18V341.432Z" fill="white"/>
<path d="M1178.86 341.432H1182.14V359.611H1178.86V341.432Z" fill="white"/>
<path d="M1167.54 341.432H1170.83V359.611H1167.54V341.432Z" fill="white"/>
<path d="M1156.22 341.432H1159.51V359.611H1156.22V341.432Z" fill="white"/>
<path d="M1144.9 341.432H1148.19V359.611H1144.9V341.432Z" fill="white"/>
<path d="M1133.59 341.432H1136.87V359.611H1133.59V341.432Z" fill="white"/>
<path d="M1212.81 366.741H1216.1V384.92H1212.81V366.741Z" fill="white"/>
<path d="M1201.5 366.741H1204.78V384.92H1201.5V366.741Z" fill="white"/>
<path d="M1190.18 366.741H1193.46V384.92H1190.18V366.741Z" fill="white"/>
<path d="M1178.86 366.741H1182.14V384.92H1178.86V366.741Z" fill="white"/>
<path d="M1167.54 366.741H1170.83V384.92H1167.54V366.741Z" fill="white"/>
<path d="M1156.22 366.741H1159.51V384.92H1156.22V366.741Z" fill="white"/>
<path d="M1144.9 366.741H1148.19V384.92H1144.9V366.741Z" fill="white"/>
<path d="M1133.59 366.741H1136.87V384.92H1133.59V366.741Z" fill="white"/>
<path d="M1201.5 393.453H1204.78V411.632H1201.5V393.453Z" fill="white"/>
<path d="M1190.18 393.453H1193.46V411.632H1190.18V393.453Z" fill="white"/>
<path d="M1178.86 393.453H1182.14V411.632H1178.86V393.453Z" fill="white"/>
<path d="M1167.54 393.453H1170.83V411.632H1167.54V393.453Z" fill="white"/>
<path d="M1156.22 393.453H1159.51V411.632H1156.22V393.453Z" fill="white"/>
<path d="M1144.9 393.453H1148.19V411.632H1144.9V393.453Z" fill="white"/>
<path d="M1133.59 393.453H1136.87V411.632H1133.59V393.453Z" fill="white"/>
<path d="M1023.48 335.935H1031.24V355.615H1023.48V335.935Z" fill="white"/>
<path d="M1023.48 373.578H1031.24V393.258H1023.48V373.578Z" fill="white"/>
<path d="M1023.48 411.219H1031.24V430.898H1023.48V411.219Z" fill="white"/>
<path d="M1023.48 448.861H1031.24V468.541H1023.48V448.861Z" fill="white"/>
<path d="M1023.48 484.35H1031.24V504.03H1023.48V484.35Z" fill="white"/>
<path d="M1023.48 521.991H1031.24V541.671H1023.48V521.991Z" fill="white"/>
<path d="M990.216 335.935H997.975V355.615H990.216V335.935Z" fill="white"/>
<path d="M990.216 373.578H997.975V393.258H990.216V373.578Z" fill="white"/>
<path d="M990.216 411.219H997.975V430.898H990.216V411.219Z" fill="white"/>
<path d="M990.216 448.861H997.975V468.541H990.216V448.861Z" fill="white"/>
<path d="M990.216 484.35H997.975V504.03H990.216V484.35Z" fill="white"/>
<path d="M990.216 521.991H997.975V541.671H990.216V521.991Z" fill="white"/>
<path d="M956.949 335.935H964.708V355.615H956.949V335.935Z" fill="white"/>
<path d="M956.949 373.578H964.708V393.258H956.949V373.578Z" fill="white"/>
<path d="M956.949 411.219H964.708V430.898H956.949V411.219Z" fill="white"/>
<path d="M956.949 448.861H964.708V468.541H956.949V448.861Z" fill="white"/>
<path d="M956.949 484.35H964.708V504.03H956.949V484.35Z" fill="white"/>
<path d="M956.949 521.991H964.708V541.671H956.949V521.991Z" fill="white"/>
<path d="M923.682 335.935H931.441V355.615H923.682V335.935Z" fill="white"/>
<path d="M923.682 373.578H931.441V393.258H923.682V373.578Z" fill="white"/>
<path d="M923.682 411.219H931.441V430.898H923.682V411.219Z" fill="white"/>
<path d="M923.682 448.861H931.441V468.541H923.682V448.861Z" fill="white"/>
<path d="M923.682 484.35H931.441V504.03H923.682V484.35Z" fill="white"/>
<path d="M923.682 521.991H931.441V541.671H923.682V521.991Z" fill="white"/>
<path d="M1149.77 61.4991H1156.22V78.7219H1149.77V61.4991Z" fill="white"/>
<path d="M1133.84 61.4991H1140.29V78.7219H1133.84V61.4991Z" fill="white"/>
<path d="M1117.91 61.4991H1124.36V78.7219H1117.91V61.4991Z" fill="white"/>
<path d="M1101.98 61.4991H1108.43V78.7219H1101.98V61.4991Z" fill="white"/>
<path d="M1149.77 90.1827H1156.22V107.406H1149.77V90.1827Z" fill="white"/>
<path d="M1133.84 90.1827H1140.29V107.406H1133.84V90.1827Z" fill="white"/>
<path d="M1117.91 90.1827H1124.36V107.406H1117.91V90.1827Z" fill="white"/>
<path d="M1101.98 90.1827H1108.43V107.406H1101.98V90.1827Z" fill="white"/>
<path d="M1149.77 118.866H1156.22V136.089H1149.77V118.866Z" fill="white"/>
<path d="M1133.84 118.866H1140.29V136.089H1133.84V118.866Z" fill="white"/>
<path d="M1083.91 61.4991H1090.36V78.7219H1083.91V61.4991Z" fill="white"/>
<path d="M1582.04 235.979H1586.15V251.767H1582.04V235.979Z" fill="white"/>
<path d="M1567.55 235.979H1571.66V251.767H1567.55V235.979Z" fill="white"/>
<path d="M1550.61 235.979H1554.71V251.767H1550.61V235.979Z" fill="white"/>
<path d="M1536.12 235.979H1540.23V251.767H1536.12V235.979Z" fill="white"/>
<path d="M1614.23 235.979H1618.33V251.767H1614.23V235.979Z" fill="white"/>
<path d="M1599.74 235.979H1603.84V251.767H1599.74V235.979Z" fill="white"/>
<path d="M1582.04 263.395H1586.15V279.183H1582.04V263.395Z" fill="white"/>
<path d="M1567.55 263.395H1571.66V279.183H1567.55V263.395Z" fill="white"/>
<path d="M1550.61 263.395H1554.71V279.183H1550.61V263.395Z" fill="white"/>
<path d="M1536.12 263.395H1540.23V279.183H1536.12V263.395Z" fill="white"/>
<path d="M1614.23 263.395H1618.33V279.183H1614.23V263.395Z" fill="white"/>
<path d="M1599.74 263.395H1603.84V279.183H1599.74V263.395Z" fill="white"/>
<path d="M1582.04 290.809H1586.15V306.596H1582.04V290.809Z" fill="white"/>
<path d="M1567.55 290.809H1571.66V306.596H1567.55V290.809Z" fill="white"/>
<path d="M1550.61 290.809H1554.71V306.596H1550.61V290.809Z" fill="white"/>
<path d="M1536.12 290.809H1540.23V306.596H1536.12V290.809Z" fill="white"/>
<path d="M1614.23 290.809H1618.33V306.596H1614.23V290.809Z" fill="white"/>
<path d="M1599.74 290.809H1603.84V306.596H1599.74V290.809Z" fill="white"/>
<path d="M813.62 356.974H819.98V381.458H813.62V356.974Z" fill="white"/>
<path d="M794.156 356.974H800.516V381.458H794.156V356.974Z" fill="white"/>
<path d="M775.835 356.974H782.195V381.458H775.835V356.974Z" fill="white"/>
<path d="M376.841 362.062H381.67V375.831H376.841V362.062Z" fill="white"/>
<path d="M361.706 362.062H366.535V375.831H361.706V362.062Z" fill="white"/>
<path d="M376.841 362.062H381.67V375.831H376.841V362.062Z" fill="white"/>
<path d="M361.706 362.062H366.535V375.831H361.706V362.062Z" fill="white"/>
<path d="M347.404 362.062H352.234V375.831H347.404V362.062Z" fill="white"/>
<path d="M332.268 362.062H337.097V375.831H332.268V362.062Z" fill="white"/>
<path d="M376.841 386.754H381.67V400.523H376.841V386.754Z" fill="white"/>
<path d="M361.706 386.754H366.535V400.523H361.706V386.754Z" fill="white"/>
<path d="M376.841 386.754H381.67V400.523H376.841V386.754Z" fill="white"/>
<path d="M361.706 386.754H366.535V400.523H361.706V386.754Z" fill="white"/>
<path d="M347.404 386.754H352.234V400.523H347.404V386.754Z" fill="white"/>
<path d="M332.268 386.754H337.097V400.523H332.268V386.754Z" fill="white"/>
<path d="M376.841 413.033H381.67V426.803H376.841V413.033Z" fill="white"/>
<path d="M361.706 413.033H366.535V426.803H361.706V413.033Z" fill="white"/>
<path d="M376.841 413.033H381.67V426.803H376.841V413.033Z" fill="white"/>
<path d="M361.706 413.033H366.535V426.803H361.706V413.033Z" fill="white"/>
<path d="M347.404 413.033H352.234V426.803H347.404V413.033Z" fill="white"/>
<path d="M332.268 413.033H337.097V426.803H332.268V413.033Z" fill="white"/>
<path d="M315.725 362.062H320.555V375.831H315.725V362.062Z" fill="white"/>
<path d="M315.725 386.754H320.555V400.523H315.725V386.754Z" fill="white"/>
<path d="M300.588 362.062H305.418V375.831H300.588V362.062Z" fill="white"/>
<path d="M753.575 321.201H758.765V342.668H753.575V321.201Z" fill="white"/>
<path d="M727.764 321.201H732.954V342.668H727.764V321.201Z" fill="white"/>
<path d="M701.955 321.201H707.145V342.668H701.955V321.201Z" fill="white"/>
<path d="M676.144 321.201H681.334V342.668H676.144V321.201Z" fill="white"/>
<path d="M753.575 365.384H758.765V386.851H753.575V365.384Z" fill="white"/>
<path d="M727.764 365.384H732.954V386.851H727.764V365.384Z" fill="white"/>
<path d="M701.955 365.384H707.145V386.851H701.955V365.384Z" fill="white"/>
<path d="M676.144 365.384H681.334V386.851H676.144V365.384Z" fill="white"/>
<path d="M753.575 410.665H758.765V432.132H753.575V410.665Z" fill="white"/>
<path d="M727.764 410.665H732.954V432.132H727.764V410.665Z" fill="white"/>
<path d="M701.955 410.665H707.145V432.132H701.955V410.665Z" fill="white"/>
<path d="M676.144 410.665H681.334V432.132H676.144V410.665Z" fill="white"/>
<path d="M753.575 455.948H758.765V477.416H753.575V455.948Z" fill="white"/>
<path d="M727.764 455.948H732.954V477.416H727.764V455.948Z" fill="white"/>
<path d="M701.955 455.948H707.145V477.416H701.955V455.948Z" fill="white"/>
<path d="M676.144 455.948H681.334V477.416H676.144V455.948Z" fill="white"/>
<path d="M753.575 497.079H758.765V518.546H753.575V497.079Z" fill="white"/>
<path d="M727.764 497.079H732.954V518.546H727.764V497.079Z" fill="white"/>
<path d="M701.955 497.079H707.145V518.546H701.955V497.079Z" fill="white"/>
<path d="M753.575 542.955H758.765V564.422H753.575V542.955Z" fill="white"/>
<path d="M727.764 542.955H732.954V564.422H727.764V542.955Z" fill="white"/>
<path d="M701.955 542.955H707.145V564.422H701.955V542.955Z" fill="white"/>
<path d="M676.144 497.079H681.334V518.546H676.144V497.079Z" fill="white"/>
<path d="M166.753 434.693H172.055V447.015H166.753V434.693Z" fill="white"/>
<path d="M166.753 454.585H172.055V466.907H166.753V454.585Z" fill="white"/>
<path d="M153.151 434.693H158.453V447.015H153.151V434.693Z" fill="white"/>
</g>
<defs>
<linearGradient id="paint0_linear_76_42" x1="960" y1="626" x2="960" y2="0" gradientUnits="userSpaceOnUse">
<stop stop-color="#172142"/>
<stop offset="1" stop-color="#4C5F9D"/>
</linearGradient>
</defs>
</svg>
