<svg width="238" height="41" viewBox="0 0 238 41" fill="none" xmlns="http://www.w3.org/2000/svg">
<path d="M34.128 27.912L42 5.4H48.576L34.848 40.776L24.48 17.016L14.112 40.776L0.384 5.4H6.96L14.928 27.912L24.48 3.72L34.128 27.912ZM46.7258 27.96C46.7258 25.688 47.2378 23.688 48.2617 21.96C49.3178 20.232 50.7418 18.888 52.5338 17.928C54.3258 16.936 56.3578 16.44 58.6298 16.44C60.9018 16.44 62.9178 16.936 64.6778 17.928C66.4698 18.888 67.8938 20.232 68.9498 21.96C70.0058 23.688 70.5338 25.688 70.5338 27.96C70.5338 30.2 70.0058 32.2 68.9498 33.96C67.8938 35.688 66.4698 37.048 64.6778 38.04C62.9178 39 60.9018 39.48 58.6298 39.48C56.3578 39.48 54.3258 39 52.5338 38.04C50.7418 37.048 49.3178 35.688 48.2617 33.96C47.2378 32.2 46.7258 30.2 46.7258 27.96ZM52.0538 27.96C52.0538 29.336 52.3418 30.552 52.9178 31.608C53.4938 32.632 54.2778 33.448 55.2698 34.056C56.2618 34.632 57.3818 34.92 58.6298 34.92C59.8458 34.92 60.9498 34.632 61.9418 34.056C62.9658 33.448 63.7658 32.632 64.3418 31.608C64.9178 30.552 65.2058 29.336 65.2058 27.96C65.2058 26.584 64.9178 25.368 64.3418 24.312C63.7658 23.256 62.9658 22.44 61.9418 21.864C60.9498 21.288 59.8458 21 58.6298 21C57.3818 21 56.2618 21.288 55.2698 21.864C54.2778 22.44 53.4938 23.256 52.9178 24.312C52.3418 25.368 52.0538 26.584 52.0538 27.96ZM80.5886 16.92V39H75.4526V16.92H80.5886ZM87.1646 22.44C86.6846 22.056 86.2366 21.768 85.8206 21.576C85.4046 21.384 84.8766 21.288 84.2366 21.288C83.3726 21.288 82.6686 21.512 82.1246 21.96C81.5806 22.408 81.1806 23.032 80.9246 23.832C80.7006 24.6 80.5886 25.512 80.5886 26.568L78.8606 25.56C78.8606 23.8 79.1806 22.248 79.8206 20.904C80.4926 19.528 81.3406 18.44 82.3646 17.64C83.4206 16.84 84.5086 16.44 85.6286 16.44C86.4286 16.44 87.1806 16.568 87.8846 16.824C88.5886 17.048 89.1806 17.464 89.6606 18.072L87.1646 22.44ZM93.2183 1.56H98.4023V39H93.2183V1.56ZM121.639 1.56H126.871V39H121.639V1.56ZM103.351 27.96C103.351 25.528 103.847 23.464 104.839 21.768C105.831 20.04 107.143 18.728 108.775 17.832C110.439 16.904 112.215 16.44 114.103 16.44C115.959 16.44 117.575 16.904 118.951 17.832C120.359 18.76 121.463 20.088 122.263 21.816C123.095 23.512 123.511 25.56 123.511 27.96C123.511 30.328 123.095 32.376 122.263 34.104C121.463 35.832 120.359 37.16 118.951 38.088C117.575 39.016 115.959 39.48 114.103 39.48C112.215 39.48 110.439 39.032 108.775 38.136C107.143 37.208 105.831 35.88 104.839 34.152C103.847 32.424 103.351 30.36 103.351 27.96ZM108.727 27.96C108.727 29.432 109.031 30.696 109.639 31.752C110.247 32.808 111.047 33.608 112.039 34.152C113.063 34.696 114.167 34.968 115.351 34.968C116.343 34.968 117.319 34.696 118.279 34.152C119.271 33.608 120.071 32.824 120.679 31.8C121.319 30.744 121.639 29.464 121.639 27.96C121.639 26.456 121.319 25.192 120.679 24.168C120.071 23.112 119.271 22.312 118.279 21.768C117.319 21.224 116.343 20.952 115.351 20.952C114.167 20.952 113.063 21.224 112.039 21.768C111.047 22.312 110.247 23.112 109.639 24.168C109.031 25.224 108.727 26.488 108.727 27.96ZM134.016 36.552C134.016 35.624 134.336 34.84 134.976 34.2C135.648 33.528 136.448 33.192 137.376 33.192C138.368 33.192 139.184 33.528 139.824 34.2C140.464 34.84 140.784 35.624 140.784 36.552C140.784 37.448 140.464 38.232 139.824 38.904C139.184 39.576 138.368 39.912 137.376 39.912C136.448 39.912 135.648 39.576 134.976 38.904C134.336 38.232 134.016 37.448 134.016 36.552ZM151.565 27.96C151.565 29.368 151.869 30.6 152.477 31.656C153.085 32.68 153.901 33.496 154.925 34.104C155.981 34.712 157.149 35.016 158.429 35.016C159.485 35.016 160.493 34.856 161.453 34.536C162.413 34.216 163.261 33.768 163.997 33.192C164.733 32.616 165.277 31.976 165.629 31.272V36.984C164.861 37.752 163.821 38.36 162.509 38.808C161.197 39.256 159.757 39.48 158.189 39.48C155.917 39.48 153.869 39 152.045 38.04C150.253 37.048 148.829 35.688 147.773 33.96C146.749 32.2 146.237 30.2 146.237 27.96C146.237 25.688 146.749 23.688 147.773 21.96C148.829 20.232 150.253 18.888 152.045 17.928C153.869 16.936 155.917 16.44 158.189 16.44C159.757 16.44 161.197 16.664 162.509 17.112C163.821 17.56 164.861 18.168 165.629 18.936V24.648C165.277 23.912 164.717 23.272 163.949 22.728C163.213 22.152 162.365 21.704 161.405 21.384C160.445 21.064 159.453 20.904 158.429 20.904C157.149 20.904 155.981 21.208 154.925 21.816C153.901 22.424 153.085 23.256 152.477 24.312C151.869 25.368 151.565 26.584 151.565 27.96ZM176.495 16.92V39H171.359V16.92H176.495ZM183.071 22.44C182.591 22.056 182.143 21.768 181.727 21.576C181.311 21.384 180.783 21.288 180.143 21.288C179.279 21.288 178.575 21.512 178.031 21.96C177.487 22.408 177.087 23.032 176.831 23.832C176.607 24.6 176.495 25.512 176.495 26.568L174.767 25.56C174.767 23.8 175.087 22.248 175.727 20.904C176.399 19.528 177.247 18.44 178.271 17.64C179.327 16.84 180.415 16.44 181.535 16.44C182.335 16.44 183.087 16.568 183.791 16.824C184.495 17.048 185.087 17.464 185.567 18.072L183.071 22.44ZM192.389 32.136C192.389 32.872 192.565 33.512 192.917 34.056C193.269 34.568 193.749 34.952 194.357 35.208C194.997 35.464 195.717 35.592 196.517 35.592C197.541 35.592 198.469 35.384 199.301 34.968C200.165 34.552 200.853 33.944 201.365 33.144C201.909 32.312 202.181 31.352 202.181 30.264L202.949 33.144C202.949 34.552 202.533 35.736 201.701 36.696C200.901 37.624 199.877 38.328 198.629 38.808C197.413 39.256 196.165 39.48 194.885 39.48C193.509 39.48 192.229 39.208 191.045 38.664C189.861 38.12 188.917 37.32 188.213 36.264C187.509 35.208 187.157 33.928 187.157 32.424C187.157 30.28 187.909 28.584 189.413 27.336C190.917 26.056 193.045 25.416 195.797 25.416C197.269 25.416 198.533 25.576 199.589 25.896C200.677 26.216 201.573 26.6 202.277 27.048C202.981 27.464 203.477 27.848 203.765 28.2V30.84C202.773 30.136 201.717 29.624 200.597 29.304C199.477 28.984 198.293 28.824 197.045 28.824C195.957 28.824 195.077 28.968 194.405 29.256C193.733 29.512 193.221 29.88 192.868 30.36C192.549 30.84 192.389 31.432 192.389 32.136ZM190.757 22.68L188.645 19.032C189.637 18.424 190.917 17.832 192.485 17.256C194.085 16.68 195.909 16.392 197.957 16.392C199.781 16.392 201.381 16.664 202.757 17.208C204.165 17.752 205.269 18.536 206.069 19.56C206.869 20.552 207.269 21.784 207.269 23.256V39H202.181V24.264C202.181 23.56 202.053 22.984 201.797 22.536C201.573 22.088 201.253 21.72 200.837 21.432C200.421 21.144 199.925 20.936 199.349 20.808C198.773 20.68 198.149 20.616 197.477 20.616C196.453 20.616 195.477 20.744 194.549 21C193.653 21.224 192.869 21.512 192.197 21.864C191.557 22.184 191.077 22.456 190.757 22.68ZM211.488 16.92H224.16V21.48H211.488V16.92ZM223.584 7.128C223.264 6.616 222.896 6.28 222.48 6.12C222.096 5.96 221.696 5.88 221.28 5.88C220.8 5.88 220.384 6.008 220.032 6.264C219.712 6.52 219.456 6.936 219.264 7.512C219.072 8.088 218.976 8.84 218.976 9.768V39H213.888V8.76C213.888 7.032 214.16 5.608 214.704 4.488C215.28 3.336 216.096 2.472 217.152 1.896C218.208 1.288 219.504 0.983997 221.04 0.983997C221.904 0.983997 222.656 1.096 223.296 1.32C223.936 1.544 224.48 1.816 224.928 2.136C225.408 2.456 225.776 2.776 226.032 3.096L223.584 7.128ZM225.053 16.92H237.581V21.48H225.053V16.92ZM228.749 9.24H233.885V39H228.749V9.24Z" fill="black"/>
</svg>
