<svg width="179" height="31" viewBox="0 0 179 31" fill="none" xmlns="http://www.w3.org/2000/svg">
<path d="M168.789 12.44H178.185V15.86H168.789V12.44ZM171.561 6.68H175.413V29H171.561V6.68Z" fill="white"/>
<path d="M158.616 12.44H168.12V15.86H158.616V12.44ZM167.688 5.096C167.448 4.712 167.172 4.46 166.86 4.34C166.572 4.22 166.272 4.16 165.96 4.16C165.6 4.16 165.288 4.256 165.024 4.448C164.784 4.64 164.592 4.952 164.448 5.384C164.304 5.816 164.232 6.38 164.232 7.076V29H160.416V6.32C160.416 5.024 160.62 3.956 161.028 3.116C161.46 2.252 162.072 1.604 162.864 1.172C163.656 0.715999 164.628 0.487999 165.78 0.487999C166.428 0.487999 166.992 0.571999 167.472 0.74C167.952 0.907999 168.36 1.112 168.696 1.352C169.056 1.592 169.332 1.832 169.524 2.072L167.688 5.096Z" fill="white"/>
<path d="M144.291 23.852C144.291 24.404 144.423 24.884 144.687 25.292C144.951 25.676 145.311 25.964 145.767 26.156C146.247 26.348 146.787 26.444 147.387 26.444C148.155 26.444 148.851 26.288 149.475 25.976C150.123 25.664 150.639 25.208 151.023 24.608C151.431 23.984 151.635 23.264 151.635 22.448L152.211 24.608C152.211 25.664 151.899 26.552 151.275 27.272C150.675 27.968 149.907 28.496 148.971 28.856C148.059 29.192 147.123 29.36 146.163 29.36C145.131 29.36 144.171 29.156 143.283 28.748C142.395 28.34 141.687 27.74 141.159 26.948C140.631 26.156 140.367 25.196 140.367 24.068C140.367 22.46 140.931 21.188 142.059 20.252C143.187 19.292 144.783 18.812 146.847 18.812C147.951 18.812 148.899 18.932 149.691 19.172C150.507 19.412 151.179 19.7 151.707 20.036C152.235 20.348 152.607 20.636 152.823 20.9V22.88C152.079 22.352 151.287 21.968 150.447 21.728C149.607 21.488 148.719 21.368 147.783 21.368C146.967 21.368 146.307 21.476 145.803 21.692C145.299 21.884 144.915 22.16 144.651 22.52C144.411 22.88 144.291 23.324 144.291 23.852ZM143.067 16.76L141.483 14.024C142.227 13.568 143.187 13.124 144.363 12.692C145.563 12.26 146.931 12.044 148.467 12.044C149.835 12.044 151.035 12.248 152.067 12.656C153.123 13.064 153.951 13.652 154.551 14.42C155.151 15.164 155.451 16.088 155.451 17.192V29H151.635V17.948C151.635 17.42 151.539 16.988 151.347 16.652C151.179 16.316 150.939 16.04 150.627 15.824C150.315 15.608 149.943 15.452 149.511 15.356C149.079 15.26 148.611 15.212 148.107 15.212C147.339 15.212 146.607 15.308 145.911 15.5C145.239 15.668 144.651 15.884 144.147 16.148C143.667 16.388 143.307 16.592 143.067 16.76Z" fill="white"/>
<path d="M132.371 12.44V29H128.519V12.44H132.371ZM137.303 16.58C136.943 16.292 136.607 16.076 136.295 15.932C135.983 15.788 135.587 15.716 135.107 15.716C134.459 15.716 133.931 15.884 133.523 16.22C133.115 16.556 132.815 17.024 132.623 17.624C132.455 18.2 132.371 18.884 132.371 19.676L131.075 18.92C131.075 17.6 131.315 16.436 131.795 15.428C132.299 14.396 132.935 13.58 133.703 12.98C134.495 12.38 135.311 12.08 136.151 12.08C136.751 12.08 137.315 12.176 137.843 12.368C138.371 12.536 138.815 12.848 139.175 13.304L137.303 16.58Z" fill="white"/>
<path d="M113.674 20.72C113.674 21.776 113.902 22.7 114.358 23.492C114.814 24.26 115.426 24.872 116.194 25.328C116.986 25.784 117.862 26.012 118.822 26.012C119.614 26.012 120.37 25.892 121.09 25.652C121.81 25.412 122.446 25.076 122.998 24.644C123.55 24.212 123.958 23.732 124.222 23.204V27.488C123.646 28.064 122.866 28.52 121.882 28.856C120.898 29.192 119.818 29.36 118.642 29.36C116.938 29.36 115.402 29 114.034 28.28C112.69 27.536 111.622 26.516 110.83 25.22C110.062 23.9 109.678 22.4 109.678 20.72C109.678 19.016 110.062 17.516 110.83 16.22C111.622 14.924 112.69 13.916 114.034 13.196C115.402 12.452 116.938 12.08 118.642 12.08C119.818 12.08 120.898 12.248 121.882 12.584C122.866 12.92 123.646 13.376 124.222 13.952V18.236C123.958 17.684 123.538 17.204 122.962 16.796C122.41 16.364 121.774 16.028 121.054 15.788C120.334 15.548 119.59 15.428 118.822 15.428C117.862 15.428 116.986 15.656 116.194 16.112C115.426 16.568 114.814 17.192 114.358 17.984C113.902 18.776 113.674 19.688 113.674 20.72Z" fill="white"/>
<path d="M100.512 27.164C100.512 26.468 100.752 25.88 101.232 25.4C101.736 24.896 102.336 24.644 103.032 24.644C103.776 24.644 104.388 24.896 104.868 25.4C105.348 25.88 105.588 26.468 105.588 27.164C105.588 27.836 105.348 28.424 104.868 28.928C104.388 29.432 103.776 29.684 103.032 29.684C102.336 29.684 101.736 29.432 101.232 28.928C100.752 28.424 100.512 27.836 100.512 27.164Z" fill="white"/>
<path d="M91.2291 0.919998H95.1531V29H91.2291V0.919998ZM77.5131 20.72C77.5131 18.896 77.8851 17.348 78.6291 16.076C79.3731 14.78 80.3571 13.796 81.5811 13.124C82.8291 12.428 84.1611 12.08 85.5771 12.08C86.9691 12.08 88.1811 12.428 89.2131 13.124C90.2691 13.82 91.0971 14.816 91.6971 16.112C92.3211 17.384 92.6331 18.92 92.6331 20.72C92.6331 22.496 92.3211 24.032 91.6971 25.328C91.0971 26.624 90.2691 27.62 89.2131 28.316C88.1811 29.012 86.9691 29.36 85.5771 29.36C84.1611 29.36 82.8291 29.024 81.5811 28.352C80.3571 27.656 79.3731 26.66 78.6291 25.364C77.8851 24.068 77.5131 22.52 77.5131 20.72ZM81.5451 20.72C81.5451 21.824 81.7731 22.772 82.2291 23.564C82.6851 24.356 83.2851 24.956 84.0291 25.364C84.7971 25.772 85.6251 25.976 86.5131 25.976C87.2571 25.976 87.9891 25.772 88.7091 25.364C89.4531 24.956 90.0531 24.368 90.5091 23.6C90.9891 22.808 91.2291 21.848 91.2291 20.72C91.2291 19.592 90.9891 18.644 90.5091 17.876C90.0531 17.084 89.4531 16.484 88.7091 16.076C87.9891 15.668 87.2571 15.464 86.5131 15.464C85.6251 15.464 84.7971 15.668 84.0291 16.076C83.2851 16.484 82.6851 17.084 82.2291 17.876C81.7731 18.668 81.5451 19.616 81.5451 20.72Z" fill="white"/>
<path d="M69.9137 0.919998H73.8017V29H69.9137V0.919998Z" fill="white"/>
<path d="M60.4415 12.44V29H56.5895V12.44H60.4415ZM65.3735 16.58C65.0135 16.292 64.6775 16.076 64.3655 15.932C64.0535 15.788 63.6575 15.716 63.1775 15.716C62.5295 15.716 62.0015 15.884 61.5935 16.22C61.1855 16.556 60.8855 17.024 60.6935 17.624C60.5255 18.2 60.4415 18.884 60.4415 19.676L59.1455 18.92C59.1455 17.6 59.3855 16.436 59.8655 15.428C60.3695 14.396 61.0055 13.58 61.7735 12.98C62.5655 12.38 63.3815 12.08 64.2215 12.08C64.8215 12.08 65.3855 12.176 65.9135 12.368C66.4415 12.536 66.8855 12.848 67.2455 13.304L65.3735 16.58Z" fill="white"/>
<path d="M35.0443 20.72C35.0443 19.016 35.4283 17.516 36.1963 16.22C36.9883 14.924 38.0563 13.916 39.4003 13.196C40.7443 12.452 42.2683 12.08 43.9723 12.08C45.6763 12.08 47.1883 12.452 48.5083 13.196C49.8523 13.916 50.9203 14.924 51.7123 16.22C52.5043 17.516 52.9003 19.016 52.9003 20.72C52.9003 22.4 52.5043 23.9 51.7123 25.22C50.9203 26.516 49.8523 27.536 48.5083 28.28C47.1883 29 45.6763 29.36 43.9723 29.36C42.2683 29.36 40.7443 29 39.4003 28.28C38.0563 27.536 36.9883 26.516 36.1963 25.22C35.4283 23.9 35.0443 22.4 35.0443 20.72ZM39.0403 20.72C39.0403 21.752 39.2563 22.664 39.6883 23.456C40.1203 24.224 40.7083 24.836 41.4523 25.292C42.1963 25.724 43.0363 25.94 43.9723 25.94C44.8843 25.94 45.7123 25.724 46.4563 25.292C47.2243 24.836 47.8243 24.224 48.2563 23.456C48.6883 22.664 48.9043 21.752 48.9043 20.72C48.9043 19.688 48.6883 18.776 48.2563 17.984C47.8243 17.192 47.2243 16.58 46.4563 16.148C45.7123 15.716 44.8843 15.5 43.9723 15.5C43.0363 15.5 42.1963 15.716 41.4523 16.148C40.7083 16.58 40.1203 17.192 39.6883 17.984C39.2563 18.776 39.0403 19.688 39.0403 20.72Z" fill="white"/>
<path d="M25.596 20.684L31.5 3.8H36.432L26.136 30.332L18.36 12.512L10.584 30.332L0.287994 3.8H5.21999L11.196 20.684L18.36 2.54L25.596 20.684Z" fill="white"/>
</svg>
